<svg width="48" height="48" viewBox="0 0 48 48" fill="none" xmlns="http://www.w3.org/2000/svg">
<rect width="48" height="48" rx="5" fill="#0F90E6"/>
<g clip-path="url(#clip0_152_2294)">
<path d="M23.5 13C21.3244 13 19.1977 13.6451 17.3887 14.8538C15.5798 16.0625 14.1699 17.7805 13.3373 19.7905C12.5048 21.8005 12.2869 24.0122 12.7114 26.146C13.1358 28.2798 14.1835 30.2398 15.7218 31.7782C17.2602 33.3166 19.2202 34.3642 21.354 34.7886C23.4878 35.2131 25.6995 34.9952 27.7095 34.1627C29.7195 33.3301 31.4375 31.9202 32.6462 30.1113C33.8549 28.3023 34.5 26.1756 34.5 24C34.4967 21.0836 33.3367 18.2877 31.2745 16.2255C29.2123 14.1633 26.4164 13.0033 23.5 13ZM23.5 34C21.5222 34 19.5888 33.4135 17.9443 32.3147C16.2998 31.2159 15.0181 29.6541 14.2612 27.8268C13.5043 25.9996 13.3063 23.9889 13.6922 22.0491C14.078 20.1093 15.0304 18.3275 16.4289 16.9289C17.8275 15.5304 19.6093 14.578 21.5491 14.1921C23.4889 13.8063 25.4996 14.0043 27.3268 14.7612C29.1541 15.5181 30.7159 16.7998 31.8147 18.4443C32.9135 20.0888 33.5 22.0222 33.5 24C33.497 26.6512 32.4424 29.193 30.5677 31.0677C28.693 32.9424 26.1512 33.997 23.5 34Z" fill="white"/>
<path d="M37.6002 26.4035C37.8291 26.3118 38.0286 26.1593 38.1771 25.9624C38.3256 25.7655 38.4174 25.5318 38.4427 25.2865C38.5205 24.4296 38.5205 23.5674 38.4427 22.7105C38.4169 22.4655 38.3246 22.2321 38.1759 22.0356C38.0271 21.8391 37.8276 21.687 37.5987 21.5955L36.1547 21.0185C35.8345 19.6553 35.294 18.3534 34.5547 17.164L35.1657 15.733C35.2671 15.506 35.3025 15.255 35.2677 15.0088C35.233 14.7626 35.1295 14.5311 34.9692 14.341C34.4194 13.6874 33.8143 13.0824 33.1607 12.5325C32.971 12.3718 32.7399 12.2678 32.4937 12.2324C32.2476 12.1971 31.9965 12.2318 31.7692 12.3325L30.3362 12.9465C29.1469 12.2072 27.845 11.6668 26.4817 11.3465L25.9037 9.90004C25.8121 9.67132 25.6596 9.47204 25.4628 9.32379C25.266 9.17554 25.0324 9.08399 24.7872 9.05904C23.9312 8.98097 23.0698 8.98097 22.2137 9.05904C21.968 9.08399 21.7338 9.17587 21.5367 9.32469C21.3396 9.4735 21.187 9.67355 21.0957 9.90304L20.5187 11.347C19.1555 11.6673 17.8535 12.2077 16.6642 12.947L15.2332 12.3355C15.0061 12.2341 14.7549 12.1988 14.5086 12.2337C14.2623 12.2685 14.0308 12.3721 13.8407 12.5325C13.1872 13.0825 12.5822 13.6875 12.0322 14.341C11.872 14.531 11.7685 14.7622 11.7337 15.0082C11.6988 15.2542 11.734 15.5051 11.8352 15.732L12.4467 17.164C11.7074 18.3534 11.167 19.6553 10.8467 21.0185L9.40022 21.5965C9.1715 21.6882 8.97222 21.8407 8.82397 22.0375C8.67572 22.2343 8.58417 22.4679 8.55922 22.713C8.48091 23.5691 8.48091 24.4305 8.55922 25.2865C8.58417 25.5323 8.67605 25.7665 8.82487 25.9636C8.97369 26.1607 9.17373 26.3132 9.40322 26.4045L10.8472 26.9815C11.1675 28.3448 11.7079 29.6467 12.4472 30.836L11.8357 32.267C11.7341 32.494 11.6987 32.7451 11.7334 32.9914C11.7682 33.2376 11.8718 33.469 12.0322 33.659C12.5822 34.3128 13.1874 34.9181 13.8412 35.468C14.0311 35.6283 14.2624 35.7318 14.5084 35.7666C14.7544 35.8015 15.0053 35.7663 15.2322 35.665L16.6642 35.0535C17.8535 35.7929 19.1555 36.3333 20.5187 36.6535L21.0967 38.1C21.1885 38.3289 21.341 38.5284 21.5379 38.6769C21.7347 38.8254 21.9684 38.9172 22.2137 38.9425C22.6532 38.9815 23.1012 39.0005 23.5372 39.0005C23.9732 39.0005 24.3977 38.9815 24.7872 38.9425C25.0328 38.917 25.2667 38.8249 25.4637 38.676C25.6606 38.5272 25.8131 38.3273 25.9047 38.098L26.4817 36.654C27.845 36.3338 29.1469 35.7934 30.3362 35.054L31.7672 35.665C31.9942 35.7666 32.2453 35.8021 32.4915 35.7673C32.7378 35.7326 32.9692 35.629 33.1592 35.4685C33.813 34.9189 34.418 34.3138 34.9677 33.66C35.1283 33.4702 35.2319 33.2389 35.2669 32.9927C35.3018 32.7466 35.2666 32.4956 35.1652 32.2685L34.5537 30.8365C35.293 29.6472 35.8335 28.3453 36.1537 26.982L37.6002 26.4035ZM35.2347 26.5105C34.9308 27.937 34.3675 29.2956 33.5727 30.5185C33.5281 30.5873 33.501 30.666 33.494 30.7477C33.4869 30.8294 33.5 30.9116 33.5322 30.987L34.2467 32.6615C34.2742 32.7185 34.2846 32.7822 34.2769 32.8449C34.2692 32.9077 34.2436 32.9669 34.2032 33.0155C33.6885 33.6276 33.1219 34.194 32.5097 34.7085C32.461 34.7474 32.4021 34.7715 32.3401 34.778C32.278 34.7845 32.2155 34.773 32.1597 34.745L30.4862 34.031C30.4108 33.9989 30.3286 33.9857 30.2469 33.9928C30.1652 33.9998 30.0865 34.0269 30.0177 34.0715C28.7948 34.8663 27.4362 35.4296 26.0097 35.7335C25.9294 35.7507 25.8546 35.7873 25.7918 35.8403C25.729 35.8932 25.6802 35.9608 25.6497 36.037L24.9757 37.724C24.953 37.7833 24.9146 37.8352 24.8647 37.8743C24.8148 37.9134 24.7552 37.9382 24.6922 37.946C23.8969 38.0181 23.0966 38.0181 22.3012 37.946C22.2396 37.9374 22.1815 37.9125 22.1327 37.8739C22.0839 37.8354 22.0463 37.7845 22.0237 37.7265L21.3502 36.037C21.3198 35.9608 21.271 35.8932 21.2082 35.8403C21.1454 35.7873 21.0705 35.7507 20.9902 35.7335C19.5637 35.4296 18.2052 34.8663 16.9822 34.0715C16.9135 34.0266 16.8348 33.9994 16.7531 33.9924C16.6713 33.9853 16.5891 33.9986 16.5137 34.031L14.8392 34.7455C14.7823 34.7729 14.7187 34.7833 14.6559 34.7757C14.5932 34.7681 14.534 34.7427 14.4852 34.7025C13.8733 34.1875 13.3069 33.6208 12.7922 33.0085C12.7536 32.9596 12.7297 32.9008 12.7232 32.8388C12.7168 32.7769 12.728 32.7144 12.7557 32.6585L13.4697 30.985C13.5019 30.9096 13.5151 30.8274 13.508 30.7457C13.5009 30.664 13.4739 30.5853 13.4292 30.5165C12.6345 29.2936 12.0711 27.935 11.7672 26.5085C11.7501 26.4282 11.7134 26.3534 11.6605 26.2906C11.6076 26.2278 11.54 26.179 11.4637 26.1485L9.77622 25.4765C9.7171 25.4538 9.66527 25.4154 9.62626 25.3654C9.58725 25.3155 9.56253 25.2559 9.55472 25.193C9.48192 24.3975 9.48192 23.597 9.55472 22.8015C9.5634 22.7401 9.58825 22.6821 9.62673 22.6334C9.66521 22.5847 9.71594 22.5472 9.77372 22.5245L11.4632 21.85C11.5395 21.8196 11.6071 21.7708 11.66 21.708C11.7129 21.6452 11.7496 21.5704 11.7667 21.49C12.0706 20.0635 12.634 18.705 13.4287 17.482C13.4734 17.4133 13.5004 17.3346 13.5075 17.2529C13.5146 17.1712 13.5014 17.089 13.4692 17.0135L12.7547 15.3385C12.7275 15.2816 12.717 15.218 12.7247 15.1553C12.7323 15.0926 12.7576 15.0333 12.7977 14.9845C13.3127 14.3729 13.8793 13.8066 14.4912 13.292C14.5401 13.2534 14.5989 13.2294 14.6609 13.2229C14.7228 13.2164 14.7854 13.2275 14.8412 13.255L16.5147 13.969C16.5901 14.0012 16.6723 14.0144 16.754 14.0073C16.8357 14.0002 16.9144 13.9732 16.9832 13.9285C18.2062 13.1338 19.5647 12.5704 20.9912 12.2665C21.0715 12.2494 21.1464 12.2128 21.2092 12.1598C21.272 12.1069 21.3208 12.0393 21.3512 11.963L22.0252 10.276C22.048 10.2169 22.0864 10.1651 22.1363 10.1261C22.1863 10.0871 22.2458 10.0623 22.3087 10.0545C23.1042 9.98199 23.9047 9.98199 24.7002 10.0545C24.7617 10.0632 24.8197 10.0881 24.8684 10.1266C24.917 10.165 24.9546 10.2158 24.9772 10.2735L25.6502 11.963C25.6807 12.0393 25.7295 12.1069 25.7923 12.1598C25.8551 12.2128 25.9299 12.2494 26.0102 12.2665C27.4367 12.5704 28.7953 13.1338 30.0182 13.9285C30.087 13.9732 30.1657 14.0002 30.2474 14.0073C30.3291 14.0144 30.4113 14.0012 30.4867 13.969L32.1612 13.2545C32.2182 13.2272 32.2818 13.2168 32.3445 13.2244C32.4072 13.232 32.4664 13.2574 32.5152 13.2975C33.127 13.8124 33.6932 14.379 34.2077 14.991C34.2463 15.0399 34.2702 15.0988 34.2768 15.1607C34.2833 15.2226 34.2722 15.2852 34.2447 15.341L33.5307 17.0145C33.4985 17.09 33.4854 17.1722 33.4925 17.2539C33.4995 17.3356 33.5266 17.4143 33.5712 17.483C34.366 18.706 34.9293 20.0645 35.2332 21.491C35.2504 21.5714 35.287 21.6462 35.3399 21.709C35.3929 21.7718 35.4605 21.8206 35.5367 21.851L37.2237 22.525C37.2822 22.5474 37.3336 22.5851 37.3725 22.634C37.4115 22.683 37.4366 22.7416 37.4452 22.8035V22.8085C37.5173 23.6039 37.5173 24.4042 37.4452 25.1995C37.4366 25.2611 37.4117 25.3193 37.3731 25.3681C37.3345 25.4168 37.2837 25.4545 37.2257 25.477L35.5372 26.15C35.4609 26.1806 35.3933 26.2294 35.3403 26.2923C35.2874 26.3552 35.2508 26.4301 35.2337 26.5105H35.2347Z" fill="white"/>
<path d="M29.5 18.5H23.429C23.3199 18.0712 23.071 17.691 22.7216 17.4195C22.3723 17.1479 21.9425 17.0005 21.5 17.0005C21.0575 17.0005 20.6277 17.1479 20.2784 17.4195C19.929 17.691 19.6801 18.0712 19.571 18.5H17.5C17.3674 18.5 17.2402 18.5527 17.1464 18.6465C17.0527 18.7402 17 18.8674 17 19C17 19.1326 17.0527 19.2598 17.1464 19.3536C17.2402 19.4473 17.3674 19.5 17.5 19.5H19.571C19.6801 19.9288 19.929 20.309 20.2784 20.5806C20.6277 20.8521 21.0575 20.9996 21.5 20.9996C21.9425 20.9996 22.3723 20.8521 22.7216 20.5806C23.071 20.309 23.3199 19.9288 23.429 19.5H29.5C29.6326 19.5 29.7598 19.4473 29.8536 19.3536C29.9473 19.2598 30 19.1326 30 19C30 18.8674 29.9473 18.7402 29.8536 18.6465C29.7598 18.5527 29.6326 18.5 29.5 18.5ZM21.5 20C21.3022 20 21.1089 19.9414 20.9444 19.8315C20.78 19.7216 20.6518 19.5654 20.5761 19.3827C20.5004 19.2 20.4806 18.9989 20.5192 18.8049C20.5578 18.6109 20.653 18.4328 20.7929 18.2929C20.9327 18.1531 21.1109 18.0578 21.3049 18.0192C21.4989 17.9807 21.7 18.0005 21.8827 18.0761C22.0654 18.1518 22.2216 18.28 22.3315 18.4445C22.4414 18.6089 22.5 18.8022 22.5 19C22.5 19.2652 22.3946 19.5196 22.2071 19.7071C22.0196 19.8947 21.7652 20 21.5 20Z" fill="white"/>
<path d="M29.5 23.5H28.429C28.3199 23.0712 28.071 22.691 27.7216 22.4195C27.3723 22.1479 26.9425 22.0005 26.5 22.0005C26.0575 22.0005 25.6277 22.1479 25.2784 22.4195C24.929 22.691 24.6801 23.0712 24.571 23.5H17.5C17.3674 23.5 17.2402 23.5527 17.1464 23.6465C17.0527 23.7402 17 23.8674 17 24C17 24.1326 17.0527 24.2598 17.1464 24.3536C17.2402 24.4473 17.3674 24.5 17.5 24.5H24.571C24.6801 24.9288 24.929 25.309 25.2784 25.5806C25.6277 25.8521 26.0575 25.9996 26.5 25.9996C26.9425 25.9996 27.3723 25.8521 27.7216 25.5806C28.071 25.309 28.3199 24.9288 28.429 24.5H29.5C29.6326 24.5 29.7598 24.4473 29.8536 24.3536C29.9473 24.2598 30 24.1326 30 24C30 23.8674 29.9473 23.7402 29.8536 23.6465C29.7598 23.5527 29.6326 23.5 29.5 23.5ZM26.5 25C26.3022 25 26.1089 24.9414 25.9444 24.8315C25.78 24.7216 25.6518 24.5654 25.5761 24.3827C25.5004 24.2 25.4806 23.9989 25.5192 23.8049C25.5578 23.6109 25.653 23.4328 25.7929 23.2929C25.9327 23.1531 26.1109 23.0578 26.3049 23.0192C26.4989 22.9807 26.7 23.0005 26.8827 23.0761C27.0654 23.1518 27.2216 23.28 27.3315 23.4445C27.4414 23.6089 27.5 23.8022 27.5 24C27.5 24.2652 27.3946 24.5196 27.2071 24.7071C27.0196 24.8947 26.7652 25 26.5 25Z" fill="white"/>
<path d="M29.5 28.5H24.929C24.8199 28.0712 24.571 27.691 24.2216 27.4195C23.8723 27.1479 23.4425 27.0005 23 27.0005C22.5575 27.0005 22.1277 27.1479 21.7784 27.4195C21.429 27.691 21.1801 28.0712 21.071 28.5H17.5C17.3674 28.5 17.2402 28.5527 17.1464 28.6465C17.0527 28.7402 17 28.8674 17 29C17 29.1326 17.0527 29.2598 17.1464 29.3536C17.2402 29.4473 17.3674 29.5 17.5 29.5H21.071C21.1801 29.9288 21.429 30.309 21.7784 30.5806C22.1277 30.8521 22.5575 30.9996 23 30.9996C23.4425 30.9996 23.8723 30.8521 24.2216 30.5806C24.571 30.309 24.8199 29.9288 24.929 29.5H29.5C29.6326 29.5 29.7598 29.4473 29.8536 29.3536C29.9473 29.2598 30 29.1326 30 29C30 28.8674 29.9473 28.7402 29.8536 28.6465C29.7598 28.5527 29.6326 28.5 29.5 28.5ZM23 30C22.8022 30 22.6089 29.9414 22.4444 29.8315C22.28 29.7216 22.1518 29.5654 22.0761 29.3827C22.0004 29.2 21.9806 28.9989 22.0192 28.8049C22.0578 28.6109 22.153 28.4328 22.2929 28.2929C22.4327 28.1531 22.6109 28.0578 22.8049 28.0192C22.9989 27.9807 23.2 28.0005 23.3827 28.0761C23.5654 28.1518 23.7216 28.28 23.8315 28.4445C23.9414 28.6089 24 28.8022 24 29C24 29.2652 23.8946 29.5196 23.7071 29.7071C23.5196 29.8947 23.2652 30 23 30Z" fill="white"/>
</g>
<defs>
<clipPath id="clip0_152_2294">
<rect width="30" height="30" fill="white" transform="translate(8.5 9)"/>
</clipPath>
</defs>
</svg>
