<svg width="48" height="48" viewBox="0 0 48 48" fill="none" xmlns="http://www.w3.org/2000/svg">
<rect width="48" height="48" rx="5" fill="#0F90E6"/>
<g clip-path="url(#clip0_152_2340)">
<path d="M36.8933 22.0795C36.7785 18.8072 35.4533 15.7472 33.1264 13.4203C30.6875 10.9809 27.4461 9.63794 23.9999 9.63794C17.0394 9.63794 11.3521 15.1781 11.1069 22.0795C10.0447 22.5515 9.30127 23.6147 9.30127 24.8503V28.2543C9.30127 29.9259 10.6611 31.2862 12.3331 31.2862C13.415 31.2862 14.2949 30.4064 14.2949 29.3245V23.7797C14.2949 22.7639 13.5158 21.9356 12.5253 21.8372C12.891 15.8245 17.8963 11.0442 23.9999 11.0442C27.0711 11.0442 29.9591 12.2414 32.1327 14.415C34.1286 16.4109 35.2967 19.0125 35.4725 21.8376C34.483 21.937 33.7053 22.7648 33.7053 23.7797V29.324C33.7053 30.3483 34.4966 31.1817 35.4988 31.2684V32.6695C35.4988 34.2473 34.2149 35.5308 32.637 35.5308H30.5178C30.4138 35.2336 30.2506 34.9589 30.0219 34.7311C29.6211 34.3284 29.0867 34.1067 28.5177 34.1067H26.3333C26.0197 34.1067 25.7188 34.1733 25.4431 34.3017C24.6913 34.6472 24.2056 35.4056 24.2056 36.2339C24.2056 36.8029 24.4274 37.3373 24.8291 37.7372C25.2308 38.1398 25.7652 38.3615 26.3333 38.3615H28.5177C29.4233 38.3615 30.2216 37.7761 30.5192 36.937H32.637C34.9906 36.937 36.905 35.0226 36.905 32.6695V31.0181C37.9606 30.5433 38.6985 29.4839 38.6985 28.2534V24.8493C38.6985 23.6147 37.955 22.5515 36.8933 22.0795ZM12.8881 23.7797V29.324C12.8881 29.6301 12.6392 29.8795 12.3327 29.8795C11.4364 29.8795 10.7071 29.1501 10.7071 28.2539V24.8498C10.7071 23.9531 11.4364 23.2242 12.3327 23.2242C12.6392 23.2242 12.8881 23.4736 12.8881 23.7797ZM29.2231 36.3848C29.1533 36.7158 28.8561 36.9562 28.5172 36.9562H26.3328C26.1406 36.9562 25.9602 36.8812 25.8224 36.7434C25.6864 36.6079 25.6114 36.427 25.6114 36.2348C25.6114 35.954 25.776 35.6976 26.0338 35.579C26.1256 35.5359 26.2264 35.5139 26.3328 35.5139H28.5172C28.7094 35.5139 28.8899 35.5884 29.0272 35.7262C29.1631 35.8617 29.2381 36.0426 29.2381 36.2348C29.2386 36.2864 29.233 36.3379 29.2231 36.3848ZM37.2922 28.2539C37.2922 29.1501 36.5628 29.8795 35.6666 29.8795C35.3605 29.8795 35.1111 29.6306 35.1111 29.324V23.7797C35.1111 23.4736 35.36 23.2242 35.6666 23.2242C36.5628 23.2242 37.2922 23.9536 37.2922 24.8498V28.2539Z" fill="white"/>
<path d="M28.5526 28.4963C30.1956 28.4963 31.532 27.1595 31.532 25.517V19.4462C31.532 18.6521 31.2217 17.904 30.6582 17.3405C30.0948 16.7771 29.3471 16.4668 28.5526 16.4668H19.4467C17.8037 16.4668 16.4673 17.8032 16.4673 19.4462V25.517C16.4673 27.1599 17.8037 28.4963 19.4467 28.4963H19.5024V30.0695C19.5024 30.6695 19.8601 31.202 20.4132 31.4265C20.5918 31.4982 20.7774 31.5338 20.9612 31.5338C21.3442 31.5338 21.7173 31.382 21.9906 31.0993L24.6076 28.4963H28.5526ZM23.8224 27.2945L20.9903 30.1112C20.9776 30.1243 20.9682 30.1341 20.9415 30.1224C20.9092 30.1093 20.9092 30.0882 20.9092 30.0695V27.7932C20.9092 27.4051 20.5946 27.0901 20.206 27.0901H19.4471C18.5795 27.0901 17.874 26.3841 17.874 25.517V19.4462C17.874 18.5785 18.5795 17.873 19.4471 17.873H28.5531C28.9721 17.873 29.3663 18.0371 29.6645 18.3348C29.9626 18.6329 30.1262 19.0276 30.1262 19.4462V25.517C30.1262 26.3846 29.4203 27.0901 28.5531 27.0901H24.3184C24.1323 27.0901 23.9542 27.1637 23.8224 27.2945Z" fill="white"/>
<path d="M20.5842 21.5564C20.0123 21.5564 19.5469 22.0223 19.5469 22.5937C19.5469 23.1651 20.0128 23.6311 20.5842 23.6311C21.1566 23.6311 21.6225 23.1651 21.6225 22.5937C21.6225 22.0223 21.157 21.5564 20.5842 21.5564Z" fill="white"/>
<path d="M23.9993 21.5564C23.4274 21.5564 22.9619 22.0223 22.9619 22.5937C22.9619 23.1651 23.4279 23.6311 23.9993 23.6311C24.5721 23.6311 25.0375 23.1651 25.0375 22.5937C25.0375 22.0223 24.5721 21.5564 23.9993 21.5564Z" fill="white"/>
<path d="M27.4148 21.5564C26.8429 21.5564 26.3774 22.0223 26.3774 22.5937C26.3774 23.1651 26.8434 23.6311 27.4148 23.6311C27.9871 23.6311 28.4531 23.1651 28.4531 22.5937C28.4531 22.0223 27.9871 21.5564 27.4148 21.5564Z" fill="white"/>
</g>
<defs>
<clipPath id="clip0_152_2340">
<rect width="30" height="30" fill="white" transform="translate(9 9)"/>
</clipPath>
</defs>
</svg>
