<svg width="34" height="32" viewBox="0 0 34 32" fill="none" xmlns="http://www.w3.org/2000/svg">
<g clip-path="url(#clip0_594_6586)">
<path d="M7.30415 0.121426C6.5567 0.383421 5.87089 1.06152 5.57807 1.8321C5.45478 2.16344 5.43166 2.42544 5.43166 3.56588V4.91439H3.37423C1.4478 4.91439 1.29369 4.92209 1.05481 5.0685C0.684937 5.29967 0.5 5.64643 0.5 6.1473C0.5 6.64817 0.684937 6.99493 1.05481 7.2261C1.29369 7.37251 1.4478 7.38022 3.37423 7.38022H5.43166V9.42223V11.4642H3.42047C1.16269 11.4642 1.0317 11.4874 0.684937 11.9959C0.546234 12.204 0.5 12.3735 0.5 12.7049C0.5 13.1826 0.669526 13.514 1.06252 13.8068C1.27057 13.9609 1.39386 13.9686 3.35882 13.9917L5.43166 14.0148V16.0106V18.0064L3.35882 18.0295C1.39386 18.0526 1.27057 18.0603 1.06252 18.2145C0.677232 18.4996 0.5 18.8386 0.5 19.3087C0.5 19.8327 0.708055 20.1948 1.12416 20.4029C1.39386 20.5416 1.5788 20.557 3.42817 20.557H5.43166V22.599V24.641H3.37423C1.4478 24.641 1.29369 24.6487 1.05481 24.7951C0.684937 25.0263 0.5 25.3731 0.5 25.874C0.5 26.3748 0.684937 26.7216 1.05481 26.9528C1.29369 27.0992 1.4478 27.1069 3.36653 27.1069H5.42396L5.44707 28.5478C5.47019 29.9426 5.4779 30.0119 5.67825 30.4203C5.94795 30.9674 6.50276 31.5222 7.04986 31.7919L7.47368 32H16.5279H25.5821L26.0059 31.7919C26.553 31.5222 27.1079 30.9674 27.3776 30.4203C27.5779 30.0119 27.5856 29.9426 27.6087 28.5478L27.6396 27.1069H29.6893C31.608 27.1069 31.7621 27.0992 32.001 26.9528C32.3709 26.7216 32.5558 26.3748 32.5558 25.874C32.5558 25.3731 32.3709 25.0263 32.001 24.7951C31.7621 24.6487 31.608 24.641 29.6893 24.641H27.6241V22.599V20.557H29.6276C31.477 20.557 31.6619 20.5416 31.9316 20.4029C32.7562 19.9868 32.787 18.8001 31.9933 18.2145C31.7852 18.0603 31.6619 18.0526 29.697 18.0295L27.6241 18.0064V16.0106V14.0148L29.697 13.9917C31.6619 13.9686 31.7852 13.9609 31.9933 13.8068C32.3786 13.5217 32.5558 13.1826 32.5558 12.7126C32.5558 12.1886 32.3478 11.8264 31.9316 11.6184C31.6619 11.4797 31.477 11.4642 29.6276 11.4642H27.6241V9.42223V7.38022H29.6893C31.608 7.38022 31.7621 7.37251 32.001 7.2261C32.3709 6.99493 32.5558 6.64817 32.5558 6.1473C32.5558 5.64643 32.3709 5.29967 32.001 5.0685C31.7621 4.92209 31.608 4.91439 29.6893 4.91439H27.6396L27.6087 3.46571C27.5856 2.07868 27.5779 2.00933 27.3776 1.60092C27.1079 1.05382 26.553 0.499007 26.0059 0.229306L25.5821 0.0212518L16.6435 0.00584036C8.22113 -0.00957109 7.68173 -0.00186536 7.30415 0.121426ZM24.9348 2.59496L25.1198 2.74137V16.0106V29.2799L24.9348 29.4263C24.7576 29.565 24.511 29.5727 16.5279 29.5727C8.54477 29.5727 8.29819 29.565 8.12096 29.4263L7.93602 29.2799V16.0106V2.74137L8.12096 2.59496C8.29819 2.45626 8.54477 2.44855 16.5279 2.44855C24.511 2.44855 24.7576 2.45626 24.9348 2.59496Z" fill="#2B2C3C"/>
</g>
<defs>
<clipPath id="clip0_594_6586">
<rect width="33" height="32" fill="white" transform="translate(0.5)"/>
</clipPath>
</defs>
</svg>
