<svg width="49" height="48" viewBox="0 0 49 48" fill="none" xmlns="http://www.w3.org/2000/svg">
<rect x="0.5" width="48" height="48" rx="5" fill="#0F90E6"/>
<path d="M29.4952 31.1407H19.5051C18.322 31.1407 17.3594 30.1781 17.3594 28.995V19.0049C17.3594 17.8217 18.322 16.8591 19.5051 16.8591H29.4951C30.6783 16.8591 31.6408 17.8217 31.6408 19.0049V28.995C31.6409 30.1781 30.6783 31.1407 29.4952 31.1407ZM19.5051 17.6795C18.7742 17.6795 18.1797 18.2741 18.1797 19.005V28.995C18.1797 29.7258 18.7742 30.3204 19.5051 30.3204H29.4951C30.226 30.3204 30.8205 29.7258 30.8205 28.995V19.0049C30.8205 18.2741 30.226 17.6794 29.4951 17.6794L19.5051 17.6795Z" fill="white"/>
<path d="M24.0898 12.075H24.9102V17.1916H24.0898V12.075Z" fill="white"/>
<path d="M24.5 12.4851C23.7246 12.4851 23.0938 11.8542 23.0938 11.0789C23.0938 10.3035 23.7246 9.67261 24.5 9.67261C25.2754 9.67261 25.9062 10.3035 25.9062 11.0789C25.9062 11.8542 25.2754 12.4851 24.5 12.4851ZM24.5 10.4929C24.1769 10.4929 23.9141 10.7558 23.9141 11.0789C23.9141 11.4019 24.1769 11.6648 24.5 11.6648C24.8231 11.6648 25.0859 11.4019 25.0859 11.0789C25.0859 10.7558 24.8231 10.4929 24.5 10.4929Z" fill="white"/>
<path d="M18.7656 12.4851C17.9903 12.4851 17.3594 11.8542 17.3594 11.0789C17.3594 10.3035 17.9903 9.67261 18.7656 9.67261C19.541 9.67261 20.1719 10.3035 20.1719 11.0789C20.1719 11.8542 19.5411 12.4851 18.7656 12.4851ZM18.7656 10.4929C18.4425 10.4929 18.1797 10.7558 18.1797 11.0789C18.1797 11.4019 18.4425 11.6648 18.7656 11.6648C19.0887 11.6648 19.3516 11.4019 19.3516 11.0789C19.3516 10.7558 19.0888 10.4929 18.7656 10.4929Z" fill="white"/>
<path d="M24.5448 20.9061H21.6329C21.4063 20.9061 21.2227 20.7225 21.2227 20.4959V15.0434H18.7656C18.5391 15.0434 18.3555 14.8598 18.3555 14.6333V12.075H19.1758V14.2231H21.6329C21.8594 14.2231 22.043 14.4067 22.043 14.6333V20.0858H24.5448V20.9061Z" fill="white"/>
<path d="M30.2349 12.4851C29.4595 12.4851 28.8286 11.8542 28.8286 11.0789C28.8286 10.3035 29.4595 9.67261 30.2349 9.67261C31.0102 9.67261 31.6411 10.3035 31.6411 11.0789C31.6411 11.8542 31.0103 12.4851 30.2349 12.4851ZM30.2349 10.4929C29.9118 10.4929 29.6489 10.7558 29.6489 11.0789C29.6489 11.4019 29.9118 11.6648 30.2349 11.6648C30.5579 11.6648 30.8208 11.4019 30.8208 11.0789C30.8208 10.7558 30.5579 10.4929 30.2349 10.4929Z" fill="white"/>
<path d="M27.7778 17.1917H26.9575V14.6333C26.9575 14.4068 27.1412 14.2232 27.3677 14.2232H29.8247V12.075H30.6451V14.6333C30.6451 14.8598 30.4614 15.0434 30.2349 15.0434H27.7778V17.1917Z" fill="white"/>
<path d="M37.4214 25.4062C36.646 25.4062 36.0151 24.7754 36.0151 24C36.0151 23.2246 36.646 22.5938 37.4214 22.5938C38.1968 22.5938 38.8276 23.2246 38.8276 24C38.8276 24.7754 38.1968 25.4062 37.4214 25.4062ZM37.4214 23.4141C37.0983 23.4141 36.8354 23.6769 36.8354 24C36.8354 24.3231 37.0983 24.5859 37.4214 24.5859C37.7445 24.5859 38.0073 24.3231 38.0073 24C38.0073 23.6769 37.7445 23.4141 37.4214 23.4141Z" fill="white"/>
<path d="M37.4214 19.6716C36.646 19.6716 36.0151 19.0408 36.0151 18.2654C36.0151 17.49 36.646 16.8591 37.4214 16.8591C38.1968 16.8591 38.8276 17.49 38.8276 18.2654C38.8276 19.0408 38.1968 19.6716 37.4214 19.6716ZM37.4214 17.6794C37.0983 17.6794 36.8354 17.9423 36.8354 18.2654C36.8354 18.5885 37.0983 18.8513 37.4214 18.8513C37.7445 18.8513 38.0073 18.5885 38.0073 18.2654C38.0073 17.9423 37.7445 17.6794 37.4214 17.6794Z" fill="white"/>
<path d="M33.8669 21.5428H31.3086V20.7225H33.4568V18.2654C33.4568 18.0389 33.6404 17.8552 33.8669 17.8552H36.4252V18.6755H34.2771V21.1327C34.2771 21.3592 34.0934 21.5428 33.8669 21.5428Z" fill="white"/>
<path d="M37.4214 31.1406C36.646 31.1406 36.0151 30.5097 36.0151 29.7343C36.0151 28.9589 36.646 28.3281 37.4214 28.3281C38.1968 28.3281 38.8276 28.9589 38.8276 29.7343C38.8276 30.5097 38.1968 31.1406 37.4214 31.1406ZM37.4214 29.1484C37.0983 29.1484 36.8354 29.4112 36.8354 29.7343C36.8354 30.0574 37.0983 30.3203 37.4214 30.3203C37.7445 30.3203 38.0073 30.0574 38.0073 29.7343C38.0073 29.4112 37.7445 29.1484 37.4214 29.1484Z" fill="white"/>
<path d="M36.4252 30.1446H33.8669C33.6404 30.1446 33.4568 29.9609 33.4568 29.7344V27.2773H31.3086V26.457H33.8669C34.0934 26.457 34.2771 26.6407 34.2771 26.8672V29.3243H36.4252V30.1446Z" fill="white"/>
<path d="M24.0898 30.8083H24.9102V35.925H24.0898V30.8083Z" fill="white"/>
<path d="M24.5 38.3274C23.7246 38.3274 23.0938 37.6965 23.0938 36.9211C23.0938 36.1458 23.7246 35.5149 24.5 35.5149C25.2754 35.5149 25.9062 36.1458 25.9062 36.9211C25.9062 37.6965 25.2754 38.3274 24.5 38.3274ZM24.5 36.3352C24.1769 36.3352 23.9141 36.5981 23.9141 36.9211C23.9141 37.2442 24.1769 37.5071 24.5 37.5071C24.8231 37.5071 25.0859 37.2442 25.0859 36.9211C25.0859 36.5981 24.8231 36.3352 24.5 36.3352Z" fill="white"/>
<path d="M30.2349 38.3274C29.4595 38.3274 28.8286 37.6965 28.8286 36.9211C28.8286 36.1458 29.4594 35.5149 30.2349 35.5149C31.0103 35.5149 31.6411 36.1458 31.6411 36.9211C31.6411 37.6965 31.0102 38.3274 30.2349 38.3274ZM30.2349 36.3352C29.9118 36.3352 29.6489 36.5981 29.6489 36.9211C29.6489 37.2442 29.9118 37.5071 30.2349 37.5071C30.5579 37.5071 30.8208 37.2442 30.8208 36.9211C30.8208 36.5981 30.5579 36.3352 30.2349 36.3352Z" fill="white"/>
<path d="M18.7656 38.3274C17.9903 38.3274 17.3594 37.6965 17.3594 36.9211C17.3594 36.1458 17.9903 35.5149 18.7656 35.5149C19.541 35.5149 20.1719 36.1458 20.1719 36.9211C20.1719 37.6965 19.5411 38.3274 18.7656 38.3274ZM18.7656 36.3352C18.4425 36.3352 18.1797 36.5981 18.1797 36.9211C18.1797 37.2442 18.4425 37.5071 18.7656 37.5071C19.0887 37.5071 19.3516 37.2442 19.3516 36.9211C19.3516 36.5981 19.0888 36.3352 18.7656 36.3352Z" fill="white"/>
<path d="M19.1758 35.925H18.3555V33.3667C18.3555 33.1401 18.5391 32.9565 18.7656 32.9565H21.2227V30.8083H22.043V33.3667C22.043 33.5932 21.8594 33.7768 21.6329 33.7768H19.1758V35.925Z" fill="white"/>
<path d="M12.5752 23.5898H20.3802V24.4102H12.5752V23.5898Z" fill="white"/>
<path d="M11.5791 25.4062C10.8037 25.4062 10.1729 24.7754 10.1729 24C10.1729 23.2246 10.8037 22.5938 11.5791 22.5938C12.3545 22.5938 12.9854 23.2246 12.9854 24C12.9854 24.7754 12.3545 25.4062 11.5791 25.4062ZM11.5791 23.4141C11.256 23.4141 10.9932 23.6769 10.9932 24C10.9932 24.3231 11.256 24.5859 11.5791 24.5859C11.9022 24.5859 12.165 24.3231 12.165 24C12.165 23.6769 11.9022 23.4141 11.5791 23.4141Z" fill="white"/>
<path d="M11.5791 31.1406C10.8037 31.1406 10.1729 30.5097 10.1729 29.7343C10.1729 28.9589 10.8037 28.3281 11.5791 28.3281C12.3545 28.3281 12.9854 28.9589 12.9854 29.7343C12.9854 30.5097 12.3545 31.1406 11.5791 31.1406ZM11.5791 29.1484C11.256 29.1484 10.9932 29.4112 10.9932 29.7343C10.9932 30.0574 11.256 30.3203 11.5791 30.3203C11.9022 30.3203 12.165 30.0574 12.165 29.7343C12.165 29.4112 11.9022 29.1484 11.5791 29.1484Z" fill="white"/>
<path d="M15.1336 30.1446H12.5752V29.3243H14.7234V26.8672C14.7234 26.6407 14.9071 26.457 15.1336 26.457H17.6919V27.2773H15.5437V29.7344C15.5437 29.9609 15.3601 30.1446 15.1336 30.1446Z" fill="white"/>
<path d="M11.5791 19.6716C10.8037 19.6716 10.1729 19.0408 10.1729 18.2654C10.1729 17.49 10.8037 16.8591 11.5791 16.8591C12.3545 16.8591 12.9854 17.49 12.9854 18.2654C12.9854 19.0408 12.3545 19.6716 11.5791 19.6716ZM11.5791 17.6794C11.256 17.6794 10.9932 17.9423 10.9932 18.2654C10.9932 18.5885 11.256 18.8513 11.5791 18.8513C11.9022 18.8513 12.165 18.5885 12.165 18.2654C12.165 17.9423 11.9022 17.6794 11.5791 17.6794Z" fill="white"/>
<path d="M17.6919 21.5428H15.1336C14.9071 21.5428 14.7234 21.3592 14.7234 21.1327V18.6755H12.5752V17.8552H15.1336C15.3601 17.8552 15.5437 18.0389 15.5437 18.2654V20.7225H17.6919V21.5428Z" fill="white"/>
<path d="M21.3765 25.4062C20.6011 25.4062 19.9702 24.7754 19.9702 24C19.9702 23.2246 20.6011 22.5938 21.3765 22.5938C22.1518 22.5938 22.7827 23.2246 22.7827 24C22.7827 24.7754 22.1518 25.4062 21.3765 25.4062ZM21.3765 23.4141C21.0534 23.4141 20.7905 23.6769 20.7905 24C20.7905 24.3231 21.0534 24.5859 21.3765 24.5859C21.6996 24.5859 21.9624 24.3231 21.9624 24C21.9624 23.6769 21.6996 23.4141 21.3765 23.4141Z" fill="white"/>
<path d="M25.541 21.9021C24.7656 21.9021 24.1348 21.2713 24.1348 20.4958C24.1348 19.7204 24.7656 19.0896 25.541 19.0896C26.3164 19.0896 26.9473 19.7205 26.9473 20.4958C26.9473 21.2712 26.3164 21.9021 25.541 21.9021ZM25.541 19.9099C25.2179 19.9099 24.9551 20.1728 24.9551 20.4958C24.9551 20.8189 25.2179 21.0818 25.541 21.0818C25.8641 21.0818 26.127 20.8189 26.127 20.4958C26.127 20.1728 25.8641 19.9099 25.541 19.9099Z" fill="white"/>
<path d="M30.6449 35.925H29.8246V33.7769H27.3676C27.141 33.7769 26.9574 33.5933 26.9574 33.3667V27.6531H24.4556V26.8328H27.3676C27.5941 26.8328 27.7777 27.0164 27.7777 27.2429V32.9566H30.2348C30.4613 32.9566 30.6449 33.1402 30.6449 33.3667V35.925Z" fill="white"/>
<path d="M23.4595 28.6492C22.6841 28.6492 22.0532 28.0183 22.0532 27.2429C22.0532 26.4675 22.6841 25.8367 23.4595 25.8367C24.2348 25.8367 24.8657 26.4675 24.8657 27.2429C24.8657 28.0183 24.2348 28.6492 23.4595 28.6492ZM23.4595 26.657C23.1364 26.657 22.8735 26.9198 22.8735 27.2429C22.8735 27.566 23.1364 27.8289 23.4595 27.8289C23.7826 27.8289 24.0454 27.566 24.0454 27.2429C24.0454 26.9198 23.7826 26.657 23.4595 26.657Z" fill="white"/>
<path d="M28.5425 23.5898H36.4252V24.4102H28.5425V23.5898Z" fill="white"/>
<path d="M27.5464 25.4062C26.771 25.4062 26.1401 24.7754 26.1401 24C26.1401 23.2246 26.771 22.5938 27.5464 22.5938C28.3218 22.5938 28.9526 23.2246 28.9526 24C28.9526 24.7754 28.3218 25.4062 27.5464 25.4062ZM27.5464 23.4141C27.2233 23.4141 26.9604 23.6769 26.9604 24C26.9604 24.3231 27.2233 24.5859 27.5464 24.5859C27.8695 24.5859 28.1323 24.3231 28.1323 24C28.1323 23.6769 27.8695 23.4141 27.5464 23.4141Z" fill="white"/>
</svg>
