<svg width="48" height="48" viewBox="0 0 48 48" fill="none" xmlns="http://www.w3.org/2000/svg">
<rect width="48" height="48" rx="5" fill="#0F90E6"/>
<g clip-path="url(#clip0_152_2350)">
<path d="M11.8125 11.8125H12.75V12.75H11.8125V11.8125Z" fill="white"/>
<path d="M13.6875 11.8125H14.625V12.75H13.6875V11.8125Z" fill="white"/>
<path d="M15.5625 11.8125H16.5V12.75H15.5625V11.8125Z" fill="white"/>
<path d="M34.3125 20.25V14.625C34.3125 14.5007 34.2631 14.3815 34.1752 14.2935C34.0873 14.2056 33.9681 14.1563 33.8438 14.1562H12.2812C12.1569 14.1563 12.0377 14.2056 11.9498 14.2935C11.8619 14.3815 11.8125 14.5007 11.8125 14.625V20.25C11.8125 20.3743 11.8619 20.4935 11.9498 20.5815C12.0377 20.6694 12.1569 20.7187 12.2812 20.7188H33.8438C33.9681 20.7187 34.0873 20.6694 34.1752 20.5815C34.2631 20.4935 34.3125 20.3743 34.3125 20.25ZM33.375 19.7812H12.75V15.0938H33.375V19.7812Z" fill="white"/>
<path d="M36.6562 26.8125C37.0291 26.8121 37.3865 26.6638 37.6501 26.4001C37.9138 26.1365 38.0621 25.7791 38.0625 25.4062V23.5312C38.0621 23.1584 37.9138 22.801 37.6501 22.5374C37.3865 22.2737 37.0291 22.1254 36.6562 22.125H36.1875V11.3438C36.1871 10.9709 36.0388 10.6135 35.7752 10.3498C35.5115 10.0862 35.1541 9.93792 34.7812 9.9375H11.3438C10.9709 9.93792 10.6135 10.0862 10.3498 10.3498C10.0862 10.6135 9.93792 10.9709 9.9375 11.3438V34.7812C9.93792 35.1541 10.0862 35.5115 10.3498 35.7752C10.6135 36.0388 10.9709 36.1871 11.3438 36.1875H16.3485C16.6149 36.7481 17.0348 37.2218 17.5593 37.5536C18.0839 37.8855 18.6918 38.0619 19.3125 38.0625H36.6562C37.0291 38.0621 37.3865 37.9138 37.6501 37.6501C37.9138 37.3865 38.0621 37.0291 38.0625 36.6562V34.7812C38.0621 34.4084 37.9138 34.051 37.6501 33.7874C37.3865 33.5237 37.0291 33.3754 36.6562 33.375H30.5625V32.4375H36.6562C37.0291 32.4371 37.3865 32.2888 37.6501 32.0251C37.9138 31.7615 38.0621 31.4041 38.0625 31.0312V29.1562C38.0621 28.7834 37.9138 28.426 37.6501 28.1624C37.3865 27.8987 37.0291 27.7504 36.6562 27.75H30.5625V26.8125H36.6562ZM16.0312 34.7812C16.0314 34.9381 16.0428 35.0948 16.0653 35.25H11.3438C11.2195 35.2499 11.1003 35.2004 11.0125 35.1125C10.9246 35.0247 10.8751 34.9055 10.875 34.7812V11.3438C10.8751 11.2195 10.9246 11.1003 11.0125 11.0125C11.1003 10.9246 11.2195 10.8751 11.3438 10.875H34.7812C34.9055 10.8751 35.0247 10.9246 35.1125 11.0125C35.2004 11.1003 35.2499 11.2195 35.25 11.3438V11.8125H17.4375V12.75H35.25V22.125H23.5312C23.1584 22.1254 22.801 22.2737 22.5374 22.5374C22.2737 22.801 22.1254 23.1584 22.125 23.5312V25.4062C22.1254 25.7791 22.2737 26.1365 22.5374 26.4001C22.801 26.6638 23.1584 26.8121 23.5312 26.8125H29.625V27.75H22.125C21.6519 27.7497 21.1844 27.8518 20.7545 28.0493C20.3246 28.2467 19.9425 28.5348 19.6345 28.8938C19.3264 29.2528 19.0996 29.6742 18.9698 30.1291C18.8399 30.584 18.81 31.0616 18.882 31.5291C18.0937 31.6344 17.3704 32.022 16.8461 32.62C16.3219 33.218 16.0323 33.986 16.0312 34.7812ZM24.9375 37.125H19.3125C18.9326 37.125 18.5584 37.0326 18.2221 36.8559C17.8858 36.6791 17.5976 36.4233 17.3821 36.1104C17.1667 35.7975 17.0305 35.4369 16.9854 35.0597C16.9403 34.6824 16.9875 34.2999 17.1231 33.945C17.2586 33.5901 17.4784 33.2735 17.7635 33.0224C18.0486 32.7713 18.3905 32.5933 18.7596 32.5037C19.1288 32.414 19.5142 32.4155 19.8827 32.5079C20.2512 32.6003 20.5917 32.7809 20.8749 33.0342L21.5001 32.3356C21.0332 31.9177 20.4561 31.6426 19.8375 31.5429C19.7315 31.0691 19.7752 30.574 19.9627 30.1261C20.1502 29.6782 20.4721 29.2995 20.8841 29.0425C21.2961 28.7855 21.7777 28.6627 22.2624 28.6912C22.7471 28.7197 23.2111 28.8981 23.5901 29.2016C23.9691 29.5051 24.2444 29.9189 24.3781 30.3857C24.5118 30.8525 24.4973 31.3493 24.3364 31.8075C24.1756 32.2656 23.8764 32.6625 23.4803 32.9433C23.0841 33.2241 22.6106 33.375 22.125 33.375V34.3125C22.7448 34.3119 23.3517 34.1361 23.8758 33.8052C24.3998 33.4744 24.8196 33.002 25.0866 32.4427C25.6941 32.4814 26.2626 32.7549 26.672 33.2053C27.0814 33.6557 27.2994 34.2478 27.2801 34.8561C27.2607 35.4645 27.0054 36.0414 26.5682 36.4649C26.131 36.8883 25.5462 37.1251 24.9375 37.125ZM27.2308 32.4375H29.625V33.375H27.9015C27.7347 33.0255 27.5077 32.7082 27.2308 32.4375ZM36.6562 34.3125C36.7805 34.3126 36.8997 34.3621 36.9875 34.45C37.0754 34.5378 37.1249 34.657 37.125 34.7812V36.6562C37.1249 36.7805 37.0754 36.8997 36.9875 36.9875C36.8997 37.0754 36.7805 37.1249 36.6562 37.125H27.2308C27.6005 36.7648 27.8797 36.3221 28.0455 35.8333C28.2113 35.3445 28.259 34.8233 28.1847 34.3125H36.6562ZM36.6562 28.6875C36.7805 28.6876 36.8997 28.7371 36.9875 28.825C37.0754 28.9128 37.1249 29.032 37.125 29.1562V31.0312C37.1249 31.1555 37.0754 31.2747 36.9875 31.3625C36.8997 31.4504 36.7805 31.4999 36.6562 31.5H25.3722C25.4465 30.9892 25.3988 30.468 25.233 29.9792C25.0672 29.4904 24.788 29.0477 24.4183 28.6875H36.6562ZM23.5312 25.875C23.407 25.8749 23.2878 25.8254 23.2 25.7375C23.1121 25.6497 23.0626 25.5305 23.0625 25.4062V23.5312C23.0626 23.407 23.1121 23.2878 23.2 23.2C23.2878 23.1121 23.407 23.0626 23.5312 23.0625H36.6562C36.7805 23.0626 36.8997 23.1121 36.9875 23.2C37.0754 23.2878 37.1249 23.407 37.125 23.5312V25.4062C37.1249 25.5305 37.0754 25.6497 36.9875 25.7375C36.8997 25.8254 36.7805 25.8749 36.6562 25.875H23.5312Z" fill="white"/>
<path d="M24 24H24.9375V24.9375H24V24Z" fill="white"/>
<path d="M30.5625 24H36.1875V24.9375H30.5625V24Z" fill="white"/>
<path d="M30.5625 29.625H36.1875V30.5625H30.5625V29.625Z" fill="white"/>
<path d="M30.5625 35.25H36.1875V36.1875H30.5625V35.25Z" fill="white"/>
<path d="M18.6517 24.7367L14.557 21.7465C14.4946 21.7009 14.4221 21.6715 14.3456 21.6608C14.2692 21.6501 14.1913 21.6584 14.1189 21.685C14.0465 21.7116 13.9817 21.7557 13.9304 21.8133C13.8791 21.871 13.8428 21.9404 13.8248 22.0154L12.6395 26.9452C12.6173 27.0372 12.6236 27.1338 12.6573 27.2221C12.6911 27.3105 12.7508 27.3866 12.8287 27.4404C12.9065 27.4942 12.9988 27.5232 13.0934 27.5236C13.188 27.5239 13.2805 27.4957 13.3587 27.4425L14.4606 26.6935L15.5467 29.6499C15.5679 29.7077 15.6003 29.7607 15.642 29.806C15.6837 29.8513 15.734 29.8879 15.7898 29.9137C15.8457 29.9396 15.9061 29.9542 15.9676 29.9567C16.0291 29.9592 16.0905 29.9495 16.1483 29.9283L17.9083 29.2818C17.9661 29.2605 18.0191 29.2281 18.0644 29.1864C18.1097 29.1447 18.1463 29.0945 18.1721 29.0386C18.1979 28.9827 18.2125 28.9223 18.215 28.8608C18.2175 28.7993 18.2079 28.7379 18.1867 28.6801L17.1006 25.7236L18.4253 25.5813C18.5194 25.5712 18.6082 25.5329 18.6801 25.4713C18.7519 25.4098 18.8035 25.328 18.828 25.2366C18.8525 25.1452 18.8488 25.0485 18.8173 24.9593C18.7858 24.8701 18.7281 24.7925 18.6517 24.7367ZM16.4035 24.8557C16.3327 24.8633 16.2645 24.8869 16.2042 24.9248C16.1439 24.9627 16.093 25.0139 16.0554 25.0744C16.0178 25.1349 15.9945 25.2032 15.9873 25.274C15.98 25.3449 15.989 25.4165 16.0136 25.4834L17.145 28.5634L16.2651 28.8867L15.1336 25.8066C15.1091 25.7398 15.0696 25.6794 15.0182 25.6301C14.9668 25.5807 14.9048 25.5438 14.837 25.522C14.7692 25.5002 14.6973 25.4941 14.6268 25.5043C14.5563 25.5145 14.489 25.5406 14.4301 25.5806L13.8344 25.9855L14.5719 22.9182L17.1196 24.7787L16.4035 24.8557Z" fill="white"/>
<path d="M14.625 18.8438H18.375C18.4993 18.8437 18.6185 18.7944 18.7065 18.7065C18.7944 18.6185 18.8437 18.4993 18.8438 18.375V16.5H17.9062V17.9062H16.9688V16.5H16.0312V17.9062H15.0938V16.5H14.1562V18.375C14.1563 18.4993 14.2056 18.6185 14.2935 18.7065C14.3815 18.7944 14.5007 18.8437 14.625 18.8438Z" fill="white"/>
<path d="M20.25 18.8438H24C24.1243 18.8437 24.2435 18.7944 24.3315 18.7065C24.4194 18.6185 24.4687 18.4993 24.4688 18.375V16.5H23.5312V17.9062H22.5938V16.5H21.6562V17.9062H20.7188V16.5H19.7812V18.375C19.7813 18.4993 19.8306 18.6185 19.9185 18.7065C20.0065 18.7944 20.1257 18.8437 20.25 18.8438Z" fill="white"/>
<path d="M25.875 18.8438H29.625C29.7493 18.8437 29.8685 18.7944 29.9565 18.7065C30.0444 18.6185 30.0937 18.4993 30.0938 18.375V16.5H29.1562V17.9062H28.2188V16.5H27.2812V17.9062H26.3438V16.5H25.4062V18.375C25.4063 18.4993 25.4556 18.6185 25.5435 18.7065C25.6315 18.7944 25.7507 18.8437 25.875 18.8438Z" fill="white"/>
<path d="M26.3438 29.625H28.2188V30.5625H26.3438V29.625Z" fill="white"/>
<path d="M31.0312 17.9062H31.9688V18.8438H31.0312V17.9062Z" fill="white"/>
<path d="M25.875 24H28.2188V24.9375H25.875V24Z" fill="white"/>
</g>
<defs>
<clipPath id="clip0_152_2350">
<rect width="30" height="30" fill="white" transform="translate(9 9)"/>
</clipPath>
</defs>
</svg>
