<svg width="48" height="48" viewBox="0 0 48 48" fill="none" xmlns="http://www.w3.org/2000/svg">
<rect width="48" height="48" rx="5" fill="#0F90E6"/>
<path d="M36.4417 32.8918H27.4333C27.2742 32.2802 26.9548 31.7223 26.508 31.2755C26.0612 30.8287 25.5032 30.5092 24.8917 30.3501V29.3334H32C32.3503 29.3351 32.6974 29.2667 33.0209 29.1322C33.3443 28.9976 33.6376 28.7997 33.8833 28.5501C34.1315 28.3032 34.3284 28.0097 34.4628 27.6865C34.5972 27.3633 34.6665 27.0168 34.6667 26.6668V16.0001C34.6645 15.2935 34.3828 14.6165 33.8832 14.1169C33.3836 13.6173 32.7066 13.3356 32 13.3334H25.3333L24.375 11.8501C24.1317 11.4854 23.8021 11.1864 23.4153 10.98C23.0286 10.7735 22.5967 10.6659 22.1583 10.6668H16C15.2934 10.669 14.6164 10.9506 14.1168 11.4502C13.6172 11.9499 13.3355 12.6269 13.3333 13.3334V26.6668C13.3355 27.3733 13.6172 28.0503 14.1168 28.5499C14.6164 29.0496 15.2934 29.3312 16 29.3334H23.1083V30.3501C22.5045 30.5156 21.9552 30.838 21.5161 31.2843C21.0771 31.7307 20.7639 32.2853 20.6083 32.8918H11.5583C11.4346 32.8797 11.3096 32.8938 11.1916 32.9329C11.0736 32.972 10.965 33.0354 10.8729 33.119C10.7809 33.2026 10.7073 33.3045 10.6569 33.4182C10.6066 33.5319 10.5806 33.6549 10.5806 33.7793C10.5806 33.9036 10.6066 34.0266 10.6569 34.1403C10.7073 34.254 10.7809 34.3559 10.8729 34.4395C10.965 34.5231 11.0736 34.5865 11.1916 34.6256C11.3096 34.6647 11.4346 34.6788 11.5583 34.6668H20.5667C20.7601 35.4307 21.2027 36.1083 21.8246 36.5923C22.4465 37.0763 23.212 37.3392 24 37.3392C24.788 37.3392 25.5535 37.0763 26.1754 36.5923C26.7973 36.1083 27.2399 35.4307 27.4333 34.6668H36.4417C36.5654 34.6788 36.6904 34.6647 36.8084 34.6256C36.9264 34.5865 37.035 34.5231 37.1271 34.4395C37.2191 34.3559 37.2927 34.254 37.3431 34.1403C37.3934 34.0266 37.4194 33.9036 37.4194 33.7793C37.4194 33.6549 37.3934 33.5319 37.3431 33.4182C37.2927 33.3045 37.2191 33.2026 37.1271 33.119C37.035 33.0354 36.9264 32.972 36.8084 32.9329C36.6904 32.8938 36.5654 32.8797 36.4417 32.8918ZM15.375 27.3334C15.2911 27.2523 15.2243 27.1552 15.1785 27.0479C15.1327 26.9405 15.1089 26.8251 15.1083 26.7084V13.3334C15.1083 13.0969 15.2023 12.8701 15.3695 12.7029C15.5367 12.5357 15.7635 12.4418 16 12.4418H22.1583C22.3054 12.4421 22.45 12.4788 22.5794 12.5486C22.7088 12.6184 22.8189 12.7191 22.9 12.8418L24.15 14.7168C24.2315 14.8384 24.3419 14.9379 24.4714 15.0062C24.6008 15.0746 24.7453 15.1097 24.8917 15.1084H32C32.2351 15.1127 32.4595 15.208 32.6258 15.3743C32.7921 15.5406 32.8874 15.7649 32.8917 16.0001V26.6668C32.8874 26.9019 32.7921 27.1262 32.6258 27.2925C32.4595 27.4588 32.2351 27.5541 32 27.5584H16C15.7702 27.5685 15.5457 27.4877 15.375 27.3334ZM24 35.5584C23.6469 35.5601 23.3013 35.4569 23.007 35.2619C22.7126 35.067 22.4827 34.789 22.3465 34.4633C22.2102 34.1376 22.1737 33.7788 22.2416 33.4323C22.3095 33.0858 22.4786 32.7673 22.7277 32.5171C22.9768 32.2668 23.2945 32.0961 23.6407 32.0267C23.9868 31.9572 24.3458 31.992 24.6722 32.1267C24.9985 32.2614 25.2775 32.49 25.4739 32.7835C25.6702 33.0769 25.775 33.422 25.775 33.7751C25.7761 34.0089 25.731 34.2406 25.6423 34.4569C25.5536 34.6732 25.423 34.8699 25.2581 35.0356C25.0931 35.2013 24.8971 35.3328 24.6812 35.4225C24.4653 35.5122 24.2338 35.5584 24 35.5584Z" fill="white"/>
</svg>
