<svg width="58" height="32" viewBox="0 0 58 32" fill="none" xmlns="http://www.w3.org/2000/svg">
<path fill-rule="evenodd" clip-rule="evenodd" d="M30.3545 11.6364H35.0091C35.6517 11.6364 36.1727 11.1154 36.1727 10.4727V1.16364C36.1727 0.520978 35.6517 0 35.0091 0H22.7909C22.1482 0 21.6273 0.520978 21.6273 1.16364V10.4727C21.6273 11.1154 22.1482 11.6364 22.7909 11.6364H27.4454V14.5455H2.71821C1.91489 14.5455 1.26367 15.1967 1.26367 16C1.26367 16.8033 1.91489 17.4545 2.71821 17.4545H12.9V20.3636H7.48185C7.26094 20.3636 7.08185 20.5427 7.08185 20.7636V31.6C7.08185 31.8209 7.26094 32 7.48185 32H24.1364C24.3573 32 24.5364 31.8209 24.5364 31.6V20.7636C24.5364 20.5427 24.3573 20.3636 24.1364 20.3636H15.8091V17.4545H41.9909V20.3636H33.6636C33.4427 20.3636 33.2636 20.5427 33.2636 20.7636V31.6C33.2636 31.8209 33.4427 32 33.6636 32H50.3182C50.5391 32 50.7182 31.8209 50.7182 31.6V20.7636C50.7182 20.5427 50.5391 20.3636 50.3182 20.3636H44.9V17.4545H55.0818C55.8851 17.4545 56.5364 16.8033 56.5364 16C56.5364 15.1967 55.8851 14.5455 55.0818 14.5455H30.3545V11.6364ZM24.5364 2.90909V8.72727H33.2636V2.90909H24.5364ZM21.6273 29.0909V23.2727H9.99094V29.0909H21.6273ZM47.8091 23.2727V29.0909H36.1727V23.2727H47.8091Z" fill="#2B2C3C"/>
</svg>
