<svg width="48" height="48" viewBox="0 0 48 48" fill="none" xmlns="http://www.w3.org/2000/svg">
<rect width="48" height="48" rx="5" fill="#0F90E6"/>
<g clip-path="url(#clip0_152_2282)">
<path d="M23.8758 25.1088C23.8758 25.1088 22.2034 21.8863 22.2651 19.5315C22.3102 17.8488 26.1044 16.1854 27.5939 13.7701C29.081 11.3535 27.4086 9 27.4086 9C27.4086 9 27.7806 10.7355 26.7893 12.5302C25.7979 14.3276 22.1389 15.382 20.7163 18.4797C19.2937 21.5774 23.8758 25.1088 23.8758 25.1088Z" fill="white"/>
<path d="M30.1357 15.3188C30.1357 15.3188 24.436 17.4882 24.436 19.9653C24.436 22.445 25.9836 23.2497 26.2334 24.0543C26.4806 24.8616 25.7995 26.2237 25.7995 26.2237C25.7995 26.2237 28.0294 24.6749 27.656 22.8776C27.2839 21.0803 25.5497 20.5215 26.5423 18.7268C27.2054 17.523 30.1357 15.3188 30.1357 15.3188Z" fill="white"/>
<path d="M23.2578 28.3827C28.5249 28.1948 30.4458 26.5326 30.4458 26.5326C27.0392 27.4609 17.9921 27.4004 17.929 26.7193C17.8685 26.0383 20.7164 25.4795 20.7164 25.4795C20.7164 25.4795 16.2566 25.4795 15.8846 26.5944C15.5124 27.7094 17.9946 28.5669 23.2578 28.3827Z" fill="white"/>
<path d="M30.8784 30.9939C30.8784 30.9939 36.0334 29.8945 35.5236 27.0942C34.9056 23.685 31.311 25.6059 31.311 25.6059C31.311 25.6059 33.8537 25.6059 34.0996 27.1534C34.3481 28.7023 30.8784 30.9939 30.8784 30.9939Z" fill="white"/>
<path d="M28.3381 29.508C28.3381 29.508 27.039 29.8492 25.1143 30.0655C22.5342 30.3551 19.4147 30.126 19.1662 29.6921C18.9216 29.2582 19.6 29.011 19.6 29.011C16.5011 29.7551 18.1967 31.0542 21.8286 31.304C24.9417 31.5164 29.5753 30.3745 29.5753 30.3745L28.3381 29.508Z" fill="white"/>
<path d="M20.347 32.2144C20.347 32.2144 18.9411 32.2543 18.8587 32.9984C18.7776 33.7375 19.7239 34.4018 23.1949 34.6078C26.6646 34.8138 29.1031 33.6589 29.1031 33.6589L27.5336 32.7062C27.5336 32.7062 26.541 32.9148 25.0127 33.1208C23.4832 33.3281 20.3469 32.9547 20.2234 32.6676C20.0973 32.3778 20.347 32.2144 20.347 32.2144Z" fill="white"/>
<path d="M33.8513 35.5604C34.3881 34.9811 33.6852 34.5266 33.6852 34.5266C33.6852 34.5266 33.9324 34.8163 33.6054 35.1459C33.2745 35.4755 30.2579 36.3008 25.4248 36.5492C20.5929 36.7977 15.3464 36.0947 15.1803 35.4755C15.0194 34.8562 17.8673 34.3618 17.8673 34.3618C17.5377 34.403 13.5723 34.4854 13.4461 35.5604C13.3225 36.6329 15.1803 37.5006 22.618 37.5006C30.052 37.4994 33.3169 36.1359 33.8513 35.5604Z" fill="white"/>
<path d="M30.9608 37.9965C27.6971 38.6557 17.7861 38.2398 17.7861 38.2398C17.7861 38.2398 24.2274 39.7694 31.5801 38.4896C35.0948 37.8768 35.2996 36.176 35.2996 36.176C35.2996 36.176 34.2246 37.3335 30.9608 37.9965Z" fill="white"/>
</g>
<defs>
<clipPath id="clip0_152_2282">
<rect width="30" height="30" fill="white" transform="translate(9.5 9)"/>
</clipPath>
</defs>
</svg>
