<svg width="48" height="48" viewBox="0 0 48 48" fill="none" xmlns="http://www.w3.org/2000/svg">
<rect width="48" height="48" rx="5" fill="#0F90E6"/>
<path d="M36.1295 34.0983C35.9772 33.5106 35.2732 32.4353 33.6781 32.5172C33.6652 32.5179 33.6525 32.5189 33.6397 32.5204L28.9676 33.0657C29.0705 32.2264 28.6742 31.3738 27.9305 30.9248L22.6251 27.7218C20.2439 26.2061 17.9675 26.1872 16.4769 26.4386C15.1935 26.6549 14.2633 27.0998 13.9123 27.2876H12.3664C12.0422 27.2876 11.7793 27.5505 11.7793 27.8747V34.1503C11.7793 34.3061 11.8412 34.4554 11.9513 34.5654C12.0614 34.6755 12.2107 34.7374 12.3664 34.7374L13.9179 34.7374L19.4465 37.7035C21.0544 38.5601 22.843 39.0001 24.6444 39.0001C25.4189 39.0001 26.1958 38.9187 26.9615 38.7541C26.9674 38.7529 26.9732 38.7516 26.979 38.7502C26.979 38.7502 34.6905 36.8437 34.7074 36.8379C35.8646 36.4368 36.4617 35.2855 36.1295 34.0983ZM34.346 35.7203L26.7062 37.6081C24.4327 38.0944 22.0508 37.7605 20 36.6681L14.3429 33.633C14.2575 33.5872 14.1622 33.5632 14.0653 33.5632L12.9535 33.5633V28.4619H14.0653C14.1731 28.4619 14.2788 28.4322 14.3708 28.3761C14.4071 28.354 18.0451 26.1943 22 28.7159C22.004 28.7184 22.0081 28.721 22.0122 28.7234L27.3237 31.93C27.7269 32.1735 27.9092 32.6737 27.7571 33.1195C27.583 33.6295 27.0519 33.9084 26.5371 33.7672L22.5392 31.8557C22.2467 31.7157 21.8961 31.8395 21.7563 32.1321C21.6164 32.4246 21.7402 32.7752 22.0327 32.915C22.0327 32.915 26.124 34.869 26.1507 34.8773C26.9689 35.1332 27.8158 34.8924 28.3704 34.3176L33.7555 33.689C34.7156 33.6486 34.9524 34.2589 34.9937 34.3973C34.9951 34.4041 34.9945 34.4001 34.9974 34.4104C35.165 35.0021 34.9095 35.5137 34.346 35.7203Z" fill="white"/>
<path d="M23.4613 23.598C23.7855 23.598 24.0484 23.3352 24.0484 23.0109V22.7297C24.8659 22.4907 25.3892 21.7787 25.5074 21.0761C25.6645 20.1417 25.1577 19.2974 24.2464 18.9753C23.7484 18.7993 23.198 18.5869 22.8914 18.3465C22.8034 18.2775 22.7662 18.1155 22.7987 17.9432C22.8151 17.856 22.8917 17.5646 23.1878 17.4755C23.7357 17.3106 24.4164 17.6268 24.6332 17.763C24.9062 17.9366 25.268 17.8569 25.4426 17.5845C25.6176 17.3116 25.5382 16.9485 25.2653 16.7734C25.1854 16.7222 24.6951 16.4213 24.0484 16.302V16.1086C24.0484 15.7844 23.7855 15.5215 23.4613 15.5215C23.1371 15.5215 22.8742 15.7843 22.8742 16.1086V16.3443C22.8658 16.3467 22.8575 16.3486 22.8491 16.3511C22.2309 16.5373 21.7694 17.064 21.6447 17.7257C21.5298 18.3357 21.7298 18.9275 22.1666 19.2703C22.5215 19.5486 23.0107 19.7838 23.855 20.0823C24.3906 20.2716 24.3791 20.7041 24.3494 20.8813C24.2884 21.244 23.9832 21.636 23.4573 21.6396C22.9227 21.6435 22.7695 21.6189 22.3636 21.3533C22.0922 21.1758 21.7284 21.252 21.5509 21.5233C21.3735 21.7946 21.4495 22.1585 21.7209 22.336C22.1587 22.6223 22.4842 22.7425 22.8742 22.7885V23.0108C22.8742 23.3351 23.137 23.598 23.4613 23.598Z" fill="white"/>
<path d="M14.4639 24.1105C14.5748 24.2286 14.7297 24.2956 14.8918 24.2956C15.0538 24.2956 15.2086 24.2286 15.3196 24.1105L17.8449 21.4232C18.0053 21.2525 18.0489 21.003 17.9559 20.7881C17.8629 20.5732 17.6512 20.434 17.417 20.434H17.0764C17.0764 20.434 17.0763 19.5221 17.0761 19.5162C17.1441 17.8661 17.8374 16.3234 19.0311 15.1683C20.2368 14.0016 21.8222 13.359 23.4954 13.359C27.0382 13.359 29.9206 16.2414 29.9206 19.7842C29.9206 21.624 29.1263 23.3799 27.7414 24.6018C27.6241 24.7053 27.553 24.8512 27.5437 25.0074C27.5345 25.1635 27.5879 25.3169 27.6922 25.4334L29.8149 27.807C29.9309 27.9367 30.0915 28.0028 30.2528 28.0028C30.3913 28.0028 30.5303 27.954 30.6421 27.855C32.9541 25.8053 34.2801 22.8636 34.2801 19.7842C34.2801 18.0813 33.8927 16.4508 33.1286 14.938C32.9825 14.6486 32.6294 14.5324 32.3399 14.6786C32.0505 14.8247 31.9343 15.1779 32.0805 15.4673C32.7609 16.8145 33.1059 18.2669 33.1059 19.7842C33.1059 22.3332 32.0859 24.7765 30.2887 26.5754L28.9462 25.0742C30.3183 23.6602 31.0948 21.7635 31.0948 19.7842C31.0948 15.5939 27.6857 12.1848 23.4953 12.1848C21.5158 12.1848 19.6404 12.9447 18.2146 14.3245C16.7922 15.7008 15.9707 17.5436 15.9012 19.5134C15.9005 19.5336 15.9023 21.0211 15.9023 21.0211C15.9023 21.2219 16.0031 21.3991 16.1568 21.505L14.8918 22.8512L13.6312 21.5096C13.7889 21.4044 13.8927 21.2249 13.8927 21.0211C13.8927 21.0211 13.8848 19.9199 13.8848 19.7842C13.8848 14.4852 18.1961 10.1742 23.4954 10.1742C25.3689 10.1742 27.1856 10.7159 28.749 11.7406C29.0202 11.9184 29.3842 11.8425 29.5619 11.5714C29.7396 11.3003 29.6639 10.9363 29.3927 10.7586C27.6374 9.60814 25.5981 9 23.4953 9C17.5485 9 12.7105 13.8378 12.7105 19.7842C12.7105 19.9276 12.7184 20.434 12.7184 20.434H12.3664C12.1323 20.434 11.9205 20.5731 11.8275 20.788C11.7346 21.0029 11.7782 21.2525 11.9386 21.4231L14.4639 24.1105Z" fill="white"/>
<path d="M31.4161 13.5032C31.667 13.2987 31.7045 12.9296 31.5 12.6789C31.2956 12.428 30.9265 12.3905 30.6757 12.595C30.4249 12.7995 30.3873 13.1685 30.5918 13.4193C30.7962 13.6701 31.1653 13.7077 31.4161 13.5032Z" fill="white"/>
</svg>
