<svg width="48" height="48" viewBox="0 0 48 48" fill="none" xmlns="http://www.w3.org/2000/svg">
<rect width="48" height="48" rx="5" fill="#0F90E6"/>
<g clip-path="url(#clip0_152_2139)">
<path d="M10.1971 20.795C9.88395 20.7133 9.56391 20.9009 9.48217 21.2139C9.47467 21.2427 9.46729 21.2715 9.46002 21.3003C9.38045 21.614 9.57024 21.9327 9.88389 22.0123C9.93223 22.0246 9.98069 22.0304 10.0284 22.0304C10.2901 22.0304 10.5286 21.8538 10.5959 21.5885L10.6161 21.5099C10.6978 21.1967 10.5102 20.8767 10.1971 20.795Z" fill="white"/>
<path d="M28.8269 10.7938C27.2764 10.2671 25.6523 10 23.9998 10C21.0998 10 18.2857 10.829 15.8616 12.3975C13.501 13.9249 11.6209 16.0735 10.4247 18.611C10.2868 18.9037 10.4122 19.2529 10.7049 19.3908C10.7856 19.4289 10.8707 19.4469 10.9543 19.4469C11.1741 19.4469 11.3848 19.3226 11.4847 19.1107C12.5452 16.8611 14.1801 14.9831 16.1633 13.6192C16.1827 13.6292 16.2026 13.6384 16.2234 13.6463L19.8035 15.0083C19.8874 15.0402 19.9415 15.1218 19.9382 15.2114C19.9357 15.2839 19.9466 15.3563 19.9703 15.4249C20.1635 15.9804 20.5873 16.4247 21.1333 16.6436C21.6792 16.8624 22.2925 16.8341 22.816 16.566C22.8182 16.5649 22.8203 16.5638 22.8225 16.5626L23.6004 16.1516C24.4655 15.6946 25.464 15.7516 26.2713 16.3044C27.0788 16.8573 27.4933 17.7676 27.3801 18.7397L27.3729 18.8014C27.329 19.1783 27.069 19.4764 26.7102 19.5611C26.3228 19.6526 25.8816 19.7578 25.5035 19.8482C24.7373 20.0314 24.1414 20.6487 23.9854 21.421L23.4826 23.9106C23.3642 24.4964 23.5086 25.1015 23.8788 25.5709C24.2488 26.0402 24.8037 26.3217 25.401 26.3432L26.0463 26.3664C26.1574 26.3704 26.265 26.3955 26.3664 26.4408C26.4441 26.4756 26.5253 26.492 26.6052 26.492C26.8292 26.492 27.0431 26.3628 27.1405 26.1451C27.2726 25.8497 27.1402 25.5031 26.8448 25.371C26.6052 25.2639 26.3508 25.2048 26.0885 25.1954L25.4432 25.1721C25.1904 25.1631 24.9556 25.0439 24.7989 24.8453C24.6423 24.6466 24.5812 24.3905 24.6313 24.1426L25.1341 21.653C25.2001 21.3265 25.4521 21.0654 25.7761 20.9879C26.1532 20.8978 26.5932 20.7929 26.9796 20.7016C27.8111 20.5054 28.437 19.7962 28.5371 18.9369L28.5443 18.8752C28.7087 17.4631 28.1065 16.1406 26.9334 15.3375C25.7604 14.5344 24.3098 14.4514 23.053 15.1155L22.2788 15.5245C22.0547 15.6383 21.8029 15.6495 21.5695 15.5558C21.3606 15.472 21.199 15.3174 21.1076 15.1158C21.0736 14.5799 20.7302 14.1071 20.2204 13.9131L17.4216 12.8483C19.4097 11.7703 21.6648 11.1719 23.9998 11.1719C25.5238 11.1719 27.021 11.418 28.4499 11.9035C28.7564 12.0076 29.0891 11.8436 29.1933 11.5371C29.2973 11.2308 29.1333 10.8979 28.8269 10.7938Z" fill="white"/>
<path d="M38.4172 20.847C38.3278 20.536 38.0032 20.3564 37.6923 20.4458C37.3813 20.5353 37.2017 20.8599 37.2911 21.1709C37.6473 22.4098 37.828 23.6981 37.828 25.0001C37.828 26.4178 37.6143 27.8157 37.1932 29.1547C37.0961 29.4634 37.2676 29.7924 37.5763 29.8895C37.6348 29.9079 37.694 29.9167 37.7523 29.9167C38.0013 29.9167 38.2323 29.7566 38.311 29.5064C38.768 28.0533 38.9998 26.5372 38.9998 25.0001C38.9998 23.5885 38.8038 22.1912 38.4172 20.847Z" fill="white"/>
<path d="M36.7798 31.7112C36.5325 31.5647 36.1621 31.6061 35.9701 31.9284C35.9689 31.9303 35.9678 31.9322 35.9667 31.9341C35.7782 32.2586 35.9221 32.6025 36.17 32.7474C36.2579 32.7988 36.3611 32.8266 36.4663 32.8266C36.6578 32.8266 36.8557 32.7345 36.9786 32.5257C37.1689 32.2022 37.0269 31.8575 36.7798 31.7112Z" fill="white"/>
<path d="M35.1342 34.1729C34.8931 33.9571 34.5227 33.9775 34.3068 34.2187C33.5062 35.1132 32.5993 35.8904 31.6145 36.5397C30.9388 36.2346 30.231 35.5113 30.3003 34.3777L30.67 29.9979C30.6973 29.6755 30.4579 29.392 30.1355 29.3648C29.8132 29.3386 29.5296 29.5769 29.5023 29.8994L29.1321 34.2855C29.1317 34.2895 29.1314 34.2936 29.1311 34.2977C29.0574 35.4602 29.5747 36.5429 30.4701 37.2173C28.4959 38.2625 26.277 38.828 23.9998 38.828C23.3622 38.828 22.7269 38.7835 22.0988 38.6965L22.6453 37.7042H23.1234C24.3648 37.7042 25.3748 36.6942 25.3748 35.4527V34.644C25.3748 34.4134 25.4467 34.1932 25.5828 34.007C25.7737 33.7457 25.7167 33.3791 25.4554 33.1882C25.1941 32.9973 24.8275 33.0542 24.6366 33.3155C24.3529 33.7038 24.203 34.1632 24.203 34.644V35.4527C24.203 36.048 23.7187 36.5323 23.1234 36.5323H22.2991C22.0855 36.5323 21.8889 36.6485 21.7859 36.8356L20.8841 38.473C19.6195 38.1815 18.3985 37.7136 17.2645 37.0798C16.9818 36.9221 16.625 37.023 16.4671 37.3055C16.3093 37.5881 16.4103 37.945 16.6928 38.1028C18.9138 39.3439 21.4405 40 23.9999 40C28.2611 40 32.3361 38.1776 35.18 35.0003C35.3958 34.7591 35.3753 34.3887 35.1342 34.1729Z" fill="white"/>
<path d="M34.088 12.5127C32.7269 12.5127 31.6196 13.62 31.6196 14.9811C31.6196 16.3421 32.7269 17.4495 34.088 17.4495C35.4491 17.4495 36.5564 16.3422 36.5564 14.9811C36.5564 13.62 35.4491 12.5127 34.088 12.5127ZM34.088 16.2776C33.3731 16.2776 32.7915 15.696 32.7915 14.9811C32.7915 14.2662 33.3731 13.6846 34.088 13.6846C34.8029 13.6846 35.3845 14.2662 35.3845 14.9811C35.3845 15.696 34.8029 16.2776 34.088 16.2776Z" fill="white"/>
<path d="M23.3088 29.9182L20.7435 26.2212C20.7168 26.1827 20.6859 26.1489 20.6524 26.119C19.9991 23.5617 17.6759 21.6653 14.9179 21.6653C11.6548 21.6653 9 24.3201 9 27.5832C9 28.9347 9.4674 30.2554 10.3164 31.3043C10.3178 31.3061 10.3192 31.308 10.3206 31.3098L14.456 36.6103C14.567 36.7526 14.7374 36.8358 14.9179 36.8358C15.0984 36.8358 15.2687 36.7527 15.3798 36.6104L19.4954 31.3377C19.5037 31.3271 19.5114 31.3165 19.5188 31.3056C20.2092 30.453 20.6471 29.4222 20.7871 28.3397L22.346 30.5863C22.4598 30.7503 22.6423 30.8383 22.8279 30.8383C22.9431 30.8383 23.0596 30.8043 23.1614 30.7337C23.4273 30.5492 23.4933 30.1841 23.3088 29.9182ZM18.5788 30.6039C18.564 30.6218 18.5503 30.6406 18.538 30.6599L14.9181 35.2974L11.2561 30.6038C11.25 30.5954 11.2437 30.5873 11.2372 30.5792C10.5502 29.7363 10.1719 28.6724 10.1719 27.5832C10.1719 24.9663 12.3009 22.8372 14.9179 22.8372C17.535 22.8372 19.664 24.9663 19.664 27.5832C19.664 28.6841 19.2786 29.7569 18.5788 30.6039Z" fill="white"/>
<path d="M14.918 24.27C13.0441 24.27 11.5195 25.7946 11.5195 27.6684C11.5195 29.5423 13.0441 31.0669 14.918 31.0669C16.7918 31.0669 18.3164 29.5423 18.3164 27.6684C18.3164 25.7946 16.7919 24.27 14.918 24.27ZM14.918 29.895C13.6902 29.895 12.6914 28.8962 12.6914 27.6684C12.6914 26.4407 13.6902 25.4419 14.918 25.4419C16.1457 25.4419 17.1445 26.4407 17.1445 27.6684C17.1445 28.8962 16.1457 29.895 14.918 29.895Z" fill="white"/>
<path d="M34.0879 10C31.3793 10 29.1758 12.2035 29.1758 14.9121C29.1758 16.0332 29.5633 17.1288 30.2672 17.9992C30.2683 18.0006 30.2695 18.0021 30.2706 18.0036L33.6259 22.3042C33.7369 22.4465 33.9073 22.5297 34.0878 22.5297H34.0879C34.2683 22.5297 34.4387 22.4466 34.5497 22.3043L37.889 18.0262C37.8963 18.017 37.9031 18.0077 37.9097 17.9981C38.6131 17.1276 38.9999 16.0338 38.9999 14.9121C38.9999 12.2035 36.7964 10 34.0879 10ZM36.9729 17.2925C36.9591 17.3091 36.9464 17.3264 36.9347 17.3442L34.088 20.9913L31.2052 17.2964C31.1994 17.2884 31.1933 17.2806 31.1871 17.273C30.6458 16.6088 30.3477 15.7703 30.3477 14.9121C30.3477 12.8498 32.0255 11.1719 34.0879 11.1719C36.1502 11.1719 37.8281 12.8498 37.8281 14.9121C37.8281 15.7796 37.5244 16.6249 36.9729 17.2925Z" fill="white"/>
<path d="M20.9096 34.4507C20.7713 34.1581 20.4221 34.0331 20.1295 34.1712L19.8646 34.2963C19.572 34.4346 19.4469 34.7838 19.5851 35.0764C19.6851 35.2882 19.8957 35.4121 20.1153 35.4121C20.1991 35.4121 20.2843 35.394 20.3652 35.3559L20.6301 35.2307C20.9227 35.0925 21.0478 34.7433 20.9096 34.4507Z" fill="white"/>
<path d="M34.0878 24.8887C33.7642 24.8887 33.5018 25.1511 33.5018 25.4746C33.5018 25.5502 33.4976 25.6264 33.4891 25.7011C33.4527 26.0226 33.684 26.3127 34.0055 26.3491C34.0279 26.3516 34.05 26.3529 34.072 26.3529C34.3661 26.3529 34.6197 26.1319 34.6535 25.8327C34.6668 25.7144 34.6736 25.594 34.6736 25.4746C34.6737 25.151 34.4114 24.8887 34.0878 24.8887Z" fill="white"/>
<path d="M30.2847 27.4609H29.9917C29.6681 27.4609 29.4058 27.7233 29.4058 28.0469C29.4058 28.3704 29.6681 28.6328 29.9917 28.6328H30.2847C30.6083 28.6328 30.8706 28.3704 30.8706 28.0469C30.8706 27.7233 30.6083 27.4609 30.2847 27.4609Z" fill="white"/>
<path d="M33.3526 27.3681C33.1843 27.0918 32.8238 27.0043 32.5474 27.1724C32.4833 27.2114 32.4161 27.2472 32.3478 27.2788C32.0541 27.4147 31.9262 27.763 32.0621 28.0567C32.1612 28.2706 32.373 28.3966 32.5943 28.3966C32.6767 28.3966 32.7604 28.3792 32.84 28.3423C32.9484 28.2921 33.055 28.2353 33.1568 28.1733C33.4332 28.005 33.5208 27.6446 33.3526 27.3681Z" fill="white"/>
<path d="M24.5194 30.8857C24.2464 30.7121 23.8843 30.7928 23.7107 31.0658L23.5535 31.3131C23.3798 31.5862 23.4605 31.9483 23.7336 32.122C23.8311 32.184 23.9398 32.2135 24.0473 32.2135C24.2411 32.2135 24.4307 32.1175 24.5423 31.9419L24.6995 31.6946C24.8732 31.4215 24.7925 31.0594 24.5194 30.8857Z" fill="white"/>
<path d="M25.934 28.6606C25.6609 28.4871 25.2988 28.5676 25.1252 28.8407L24.968 29.0879C24.7944 29.361 24.875 29.7231 25.1481 29.8967C25.2456 29.9587 25.3544 29.9883 25.4619 29.9883C25.6557 29.9883 25.8453 29.8922 25.9569 29.7166L26.1141 29.4694C26.2877 29.1963 26.207 28.8342 25.934 28.6606Z" fill="white"/>
<path d="M23.2939 33.3245C23.1556 33.0319 22.8063 32.9069 22.5138 33.045L22.2489 33.1702C21.9563 33.3084 21.8312 33.6576 21.9693 33.9502C22.0694 34.162 22.2799 34.286 22.4995 34.286C22.5834 34.286 22.6686 34.2679 22.7495 34.2297L23.0144 34.1046C23.307 33.9664 23.4321 33.6171 23.2939 33.3245Z" fill="white"/>
<path d="M27.6479 27.4609H27.355C27.0314 27.4609 26.769 27.7233 26.769 28.0469C26.769 28.3704 27.0314 28.6328 27.355 28.6328H27.6479C27.9716 28.6328 28.2339 28.3704 28.2339 28.0469C28.2339 27.7233 27.9716 27.4609 27.6479 27.4609Z" fill="white"/>
</g>
<defs>
<clipPath id="clip0_152_2139">
<rect width="30" height="30" fill="white" transform="translate(9 10)"/>
</clipPath>
</defs>
</svg>
