<svg width="36" height="32" viewBox="0 0 36 32" fill="none" xmlns="http://www.w3.org/2000/svg">
<g clip-path="url(#clip0_594_6588)">
<path d="M5.99669 0.131657C5.51395 0.307199 5.17749 0.59977 5.03852 0.965485C4.97269 1.14103 4.05109 5.4784 2.98321 10.6057L1.04492 19.9241L1.05955 25.4903L1.08149 31.0491C1.08147 31.5703 1.50391 32 2.02503 32H18.1311C26.8223 32 32.3819 32 34.3757 32C34.9061 32 35.2258 31.705 35.2349 31.1747C35.281 28.4994 35.2703 20.2254 35.2026 19.9241C35.1807 19.8217 34.303 14.6725 34.2883 14.592C34.1859 13.9776 34.164 13.8533 34.1347 13.8167C34.1201 13.7874 34.0909 13.6411 34.0689 13.4875C34.047 13.3266 34.0031 13.1511 33.9811 13.0926C33.9592 13.0341 33.9299 12.917 33.9226 12.8366C33.908 12.6757 33.8934 12.6025 33.6666 11.52C33.5789 11.1177 33.4911 10.7081 33.4764 10.6057C33.2278 9.36229 31.5162 1.20686 31.4504 0.994744C31.348 0.629029 30.9165 0.197485 30.5361 0.0877701C30.3167 0.0219416 27.3471 0 18.2993 0C7.21818 0.00731429 6.32584 0.0146277 5.99669 0.131657ZM28.6563 3.23291C28.6783 3.28411 28.9562 4.608 29.2854 6.18057C29.6072 7.74583 30.0168 9.74263 30.1997 10.6057C30.5581 12.3246 30.9457 14.1897 31.2163 15.5063C31.3114 15.9671 31.5089 16.9033 31.6479 17.5909C31.7942 18.2711 31.9112 18.8416 31.9112 18.8489C31.9112 18.8635 25.7526 18.8709 18.2262 18.8709H4.54115L4.57772 18.7026C4.59966 18.6149 5.33109 15.1186 6.20149 10.9349C7.06458 6.75109 7.78869 3.28411 7.81063 3.23291C7.83258 3.16708 9.99029 3.14514 18.2335 3.14514C26.4767 3.14514 28.6344 3.16708 28.6563 3.23291ZM32.2769 25.5634V29.0377H18.2335H4.19006V25.5634V22.0891H18.2335H32.2769V25.5634Z" fill="#2B2C3C"/>
<path d="M26.4552 23.5813C25.6945 23.9324 25.3142 24.5029 25.2703 25.366C25.241 25.8487 25.263 25.9438 25.4678 26.3607C26.1041 27.6554 27.7352 27.9041 28.7446 26.8654C29.5565 26.0316 29.5565 24.8467 28.7446 24.0275C28.1082 23.3985 27.2232 23.2229 26.4552 23.5813Z" fill="#2B2C3C"/>
<path d="M6.74379 23.9472C6.0343 24.1959 5.76367 24.6128 5.76367 25.4539C5.76367 26.1561 5.9319 26.4999 6.42196 26.8071L6.77305 27.0265L13.6924 27.0484C18.7246 27.0631 20.7214 27.0484 21.0067 26.9899C21.7893 26.8144 22.2647 26.0756 22.155 25.2125C22.0965 24.7737 22.0233 24.6128 21.7235 24.2983C21.2773 23.8301 21.4894 23.8448 13.8899 23.8448C8.45533 23.8521 6.94859 23.874 6.74379 23.9472Z" fill="#2B2C3C"/>
</g>
<defs>
<clipPath id="clip0_594_6588">
<rect width="35" height="32" fill="white" transform="translate(0.5)"/>
</clipPath>
</defs>
</svg>
