<svg width="49" height="48" viewBox="0 0 49 48" fill="none" xmlns="http://www.w3.org/2000/svg">
<rect x="0.5" width="48" height="48" rx="5" fill="#0F90E6"/>
<path d="M12.8267 14.29C13.0753 14.29 13.3137 14.1912 13.4896 14.0154C13.6654 13.8396 13.7641 13.6012 13.7642 13.3525V11.3931H35.2353V29.4283C35.2353 29.6769 35.3341 29.9154 35.5099 30.0912C35.6857 30.267 35.9242 30.3658 36.1728 30.3658C36.4215 30.3658 36.6599 30.267 36.8357 30.0912C37.0116 29.9154 37.1103 29.6769 37.1103 29.4283V10.4556C37.1103 10.2069 37.0115 9.96848 36.8357 9.79267C36.6599 9.61685 36.4215 9.51808 36.1728 9.51807H12.8267C12.578 9.51808 12.3396 9.61685 12.1638 9.79267C11.9879 9.96848 11.8892 10.2069 11.8892 10.4556V13.3525C11.8892 13.6012 11.9879 13.8396 12.1638 14.0154C12.3396 14.1912 12.578 14.29 12.8267 14.29Z" fill="white"/>
<path d="M36.1728 34.5679C35.9242 34.5679 35.6857 34.6667 35.5099 34.8425C35.3341 35.0183 35.2353 35.2567 35.2353 35.5054V36.607H13.7642V19.5515C13.7642 19.3029 13.6654 19.0644 13.4896 18.8886C13.3138 18.7128 13.0753 18.614 12.8267 18.614C12.578 18.614 12.3396 18.7128 12.1637 18.8886C11.9879 19.0644 11.8892 19.3029 11.8892 19.5515V37.5445C11.8892 37.7931 11.9879 38.0316 12.1638 38.2074C12.3396 38.3832 12.578 38.482 12.8267 38.482H36.1728C36.4215 38.482 36.6599 38.3832 36.8357 38.2074C37.0115 38.0316 37.1103 37.7931 37.1103 37.5445V35.5054C37.1103 35.2567 37.0115 35.0183 36.8357 34.8425C36.6599 34.6667 36.4215 34.5679 36.1728 34.5679Z" fill="white"/>
<path d="M23.9915 16.4233C23.9915 16.1747 23.8927 15.9363 23.7169 15.7604C23.5411 15.5846 23.3026 15.4859 23.054 15.4858H11.0796C10.8309 15.4858 10.5925 15.5846 10.4167 15.7604C10.2409 15.9362 10.1421 16.1747 10.1421 16.4233C10.1421 16.672 10.2409 16.9104 10.4167 17.0863C10.5925 17.2621 10.8309 17.3608 11.0796 17.3608H23.054C23.3026 17.3608 23.5411 17.2621 23.7169 17.0862C23.8927 16.9104 23.9915 16.672 23.9915 16.4233Z" fill="white"/>
<path d="M25.3353 21.814C25.3353 21.5653 25.2365 21.3269 25.0607 21.1511C24.8849 20.9753 24.6464 20.8765 24.3978 20.8765H16.0015C15.7528 20.8765 15.5144 20.9752 15.3386 21.1511C15.1627 21.3269 15.064 21.5653 15.064 21.814C15.064 22.0626 15.1627 22.3011 15.3386 22.4769C15.5144 22.6527 15.7528 22.7515 16.0015 22.7515H24.3978C24.6464 22.7515 24.8849 22.6527 25.0607 22.4769C25.2365 22.3011 25.3353 22.0626 25.3353 21.814Z" fill="white"/>
<path d="M17.6421 28.1421H25.804C26.0527 28.1421 26.2911 28.0433 26.4669 27.8675C26.6427 27.6917 26.7415 27.4532 26.7415 27.2046C26.7415 26.9559 26.6427 26.7175 26.4669 26.5417C26.2911 26.3659 26.0527 26.2671 25.804 26.2671H17.6421C17.3934 26.2671 17.155 26.3659 16.9792 26.5417C16.8034 26.7175 16.7046 26.9559 16.7046 27.2046C16.7046 27.4532 16.8034 27.6917 16.9792 27.8675C17.155 28.0433 17.3934 28.1421 17.6421 28.1421Z" fill="white"/>
<path d="M37.9201 31.6577H20.4546C20.2059 31.6577 19.9675 31.7565 19.7917 31.9323C19.6159 32.1081 19.5171 32.3466 19.5171 32.5952C19.5171 32.8439 19.6159 33.0823 19.7917 33.2581C19.9675 33.4339 20.2059 33.5327 20.4546 33.5327H37.9201C38.1687 33.5327 38.4072 33.4339 38.583 33.2581C38.7588 33.0823 38.8576 32.8439 38.8576 32.5952C38.8576 32.3466 38.7588 32.1081 38.583 31.9323C38.4072 31.7565 38.1687 31.6577 37.9201 31.6577Z" fill="white"/>
<path d="M27.8029 18.8797C27.8217 18.8809 27.8407 18.8814 27.8595 18.8814C28.0893 18.8814 28.3111 18.797 28.4827 18.6442L31.3343 16.1062C31.4264 16.0244 31.5014 15.9252 31.555 15.8144C31.6087 15.7036 31.6401 15.5833 31.6472 15.4604C31.6544 15.3374 31.6373 15.2143 31.5969 15.098C31.5565 14.9817 31.4935 14.8744 31.4117 14.7825C31.3298 14.6905 31.2306 14.6155 31.1198 14.5619C31.0089 14.5082 30.8886 14.477 30.7657 14.4698C30.6427 14.4627 30.5196 14.4799 30.4033 14.5203C30.287 14.5608 30.1798 14.6238 30.0878 14.7057L27.9396 16.6176L27.0362 15.5932C26.9547 15.5009 26.8559 15.4255 26.7453 15.3713C26.6347 15.3172 26.5146 15.2854 26.3917 15.2776C26.2688 15.2699 26.1456 15.2865 26.0292 15.3264C25.9127 15.3663 25.8052 15.4288 25.7129 15.5102C25.6206 15.5917 25.5452 15.6905 25.491 15.8011C25.4369 15.9116 25.405 16.0318 25.3973 16.1547C25.3896 16.2776 25.4062 16.4008 25.4461 16.5172C25.486 16.6337 25.5485 16.7412 25.6299 16.8335L27.1563 18.5641C27.238 18.6567 27.3372 18.7322 27.4481 18.7864C27.5591 18.8406 27.6797 18.8723 27.8029 18.8797Z" fill="white"/>
<path d="M28.797 23.9547C28.8786 24.0473 28.9778 24.1229 29.0888 24.177C29.1997 24.2312 29.3203 24.2629 29.4435 24.2703C29.4623 24.2715 29.4813 24.2721 29.5001 24.2721C29.7299 24.272 29.9517 24.1876 30.1233 24.0348L32.975 21.4969C33.067 21.415 33.142 21.3159 33.1957 21.2051C33.2494 21.0942 33.2807 20.9739 33.2879 20.851C33.295 20.7281 33.2779 20.6049 33.2375 20.4886C33.1971 20.3723 33.1341 20.2651 33.0523 20.1731C32.9704 20.0811 32.8712 20.0061 32.7604 19.9525C32.6495 19.8989 32.5292 19.8676 32.4063 19.8605C32.2833 19.8533 32.1602 19.8705 32.0439 19.911C31.9276 19.9514 31.8204 20.0144 31.7285 20.0963L29.5802 22.0082L28.6768 20.9838C28.5954 20.8915 28.4965 20.8161 28.386 20.762C28.2754 20.7078 28.1552 20.676 28.0323 20.6683C27.9095 20.6606 27.7863 20.6771 27.6698 20.717C27.5533 20.757 27.4459 20.8194 27.3535 20.9009C27.2612 20.9823 27.1858 21.0811 27.1316 21.1917C27.0775 21.3023 27.0457 21.4224 27.038 21.5453C27.0303 21.6682 27.0468 21.7914 27.0867 21.9079C27.1267 22.0243 27.1891 22.1318 27.2705 22.2241L28.797 23.9547Z" fill="white"/>
<path d="M29.9688 29.5797C30.0505 29.6723 30.1497 29.7479 30.2606 29.802C30.3716 29.8562 30.4922 29.8879 30.6154 29.8953C30.6342 29.8965 30.6532 29.8971 30.672 29.8971C30.9018 29.897 31.1236 29.8126 31.2952 29.6598L34.1468 27.1219C34.2389 27.04 34.3139 26.9409 34.3675 26.8301C34.4212 26.7192 34.4526 26.5989 34.4597 26.476C34.4669 26.3531 34.4498 26.2299 34.4094 26.1136C34.369 25.9973 34.306 25.8901 34.2242 25.7981C34.1423 25.7061 34.0431 25.6311 33.9323 25.5775C33.8214 25.5239 33.7011 25.4926 33.5782 25.4855C33.4552 25.4783 33.3321 25.4955 33.2158 25.536C33.0995 25.5764 32.9923 25.6394 32.9004 25.7213L30.7521 27.6332L29.8487 26.6088C29.7672 26.5165 29.6684 26.4411 29.5578 26.387C29.4473 26.3328 29.3271 26.301 29.2042 26.2933C28.9561 26.2777 28.7119 26.3614 28.5254 26.5258C28.3389 26.6903 28.2254 26.9221 28.2098 27.1703C28.1943 27.4185 28.2779 27.6627 28.4424 27.8491L29.9688 29.5797Z" fill="white"/>
</svg>
