<svg width="49" height="48" viewBox="0 0 49 48" fill="none" xmlns="http://www.w3.org/2000/svg">
<rect x="0.5" width="48" height="48" rx="5" fill="#0F90E6"/>
<g clip-path="url(#clip0_152_2331)">
<path d="M31.5625 22.125C29.4981 22.1283 27.5064 22.8875 25.9636 24.2591C24.4208 25.6307 23.4337 27.5199 23.1888 29.5697C20.4111 29.7346 17.6237 29.5456 14.8937 29.0072C14.6511 28.9525 14.3966 28.9964 14.1863 29.1293C13.9761 29.2623 13.8272 29.4733 13.7725 29.7159C13.7178 29.9586 13.7617 30.2131 13.8947 30.4233C14.0276 30.6336 14.2386 30.7825 14.4813 30.8372C16.7076 31.2973 18.9766 31.5195 21.25 31.5C21.9006 31.5 22.54 31.4784 23.1719 31.4466C23.3922 33.5092 24.3664 35.4178 25.9075 36.8062C24.3644 37.0214 22.808 37.128 21.25 37.125C15.5819 37.125 12.13 35.8791 11.875 35.25V22.4841C11.92 22.5056 11.9753 22.5225 12.0213 22.5441C12.2412 22.6453 12.4741 22.7391 12.7197 22.8253C12.8134 22.8591 12.9072 22.8909 13.0009 22.9191C13.2616 23.0053 13.5322 23.0856 13.8128 23.16C13.8766 23.1769 13.9366 23.1956 14.0003 23.2116C14.3463 23.2987 14.7044 23.3766 15.07 23.4478C15.1638 23.4656 15.2575 23.4806 15.3559 23.4984C15.6372 23.5491 15.9269 23.5969 16.2175 23.6391C16.3319 23.655 16.4444 23.6719 16.5587 23.6869C16.8906 23.7313 17.2225 23.7703 17.5544 23.8041L17.6997 23.82C18.0747 23.8575 18.4553 23.8866 18.8247 23.9137L19.135 23.9316C19.4163 23.9475 19.6825 23.9597 19.9488 23.97L20.2562 23.9803C20.6003 23.9897 20.9359 23.9963 21.2509 23.9963C22.2334 23.9963 23.2037 23.9597 24.1356 23.8875C24.3821 23.8665 24.6103 23.749 24.7705 23.5605C24.9306 23.372 25.0098 23.1278 24.9908 22.8812C24.9717 22.6346 24.856 22.4055 24.6688 22.2438C24.4815 22.0821 24.238 22.001 23.9913 22.0181C23.1062 22.0903 22.1875 22.125 21.25 22.125C15.5819 22.125 12.13 20.8791 11.875 20.25V14.9841C11.92 15.0056 11.9753 15.0225 12.0213 15.0441C12.2412 15.1453 12.4741 15.2391 12.7197 15.3253C12.8134 15.3591 12.9072 15.3909 13.0009 15.4191C13.2616 15.5053 13.5322 15.5856 13.8128 15.66C13.8766 15.6769 13.9366 15.6956 14.0003 15.7116C14.3463 15.7987 14.7044 15.8766 15.07 15.9478C15.1638 15.9656 15.2575 15.9806 15.3559 15.9984C15.6372 16.0491 15.9269 16.0922 16.2175 16.1391C16.3319 16.155 16.4444 16.1719 16.5587 16.1869C16.8906 16.2306 17.2225 16.2697 17.5544 16.3041L17.6997 16.32C18.0747 16.3575 18.4553 16.3866 18.8247 16.4138L19.135 16.4316C19.4163 16.4475 19.6825 16.4597 19.9488 16.47L20.2562 16.4803C20.6003 16.4897 20.9359 16.4962 21.2509 16.4962C23.5244 16.5151 25.7934 16.2923 28.0197 15.8316C28.2624 15.7769 28.4734 15.628 28.6063 15.4177C28.7392 15.2074 28.7831 14.953 28.7284 14.7103C28.6737 14.4676 28.5249 14.2566 28.3146 14.1237C28.1043 13.9908 27.8499 13.9469 27.6072 14.0016C25.5162 14.434 23.3852 14.643 21.25 14.625C20.74 14.625 20.2553 14.6119 19.7819 14.5931C15.0334 14.4047 12.1562 13.3406 11.8853 12.765C12.2181 12.0937 15.6512 10.875 21.25 10.875C26.9153 10.875 30.3691 12.1219 30.625 12.75V19.3125C30.625 19.5611 30.7238 19.7996 30.8996 19.9754C31.0754 20.1512 31.3139 20.25 31.5625 20.25C31.8111 20.25 32.0496 20.1512 32.2254 19.9754C32.4012 19.7996 32.5 19.5611 32.5 19.3125V12.75C32.5 9.78938 25.4284 9 21.25 9C17.0716 9 10 9.78938 10 12.75V35.25C10 38.2106 17.0716 39 21.25 39C23.5234 39.0189 25.7924 38.7961 28.0187 38.3353C28.0652 38.3185 28.1104 38.2981 28.1537 38.2744C29.3028 38.7844 30.5512 39.0312 31.8079 38.9968C33.0646 38.9624 34.2976 38.6476 35.417 38.0755C36.5364 37.5033 37.5138 36.6883 38.2777 35.6899C39.0417 34.6915 39.5729 33.5351 39.8325 32.305C40.0922 31.075 40.0737 29.8025 39.7784 28.5806C39.4831 27.3586 38.9185 26.2181 38.1258 25.2423C37.3331 24.2666 36.3324 23.4803 35.1969 22.941C34.0613 22.4016 32.8196 22.1228 31.5625 22.125ZM31.5625 37.125C30.2646 37.125 28.9958 36.7401 27.9166 36.019C26.8374 35.2979 25.9962 34.273 25.4995 33.0739C25.0028 31.8747 24.8729 30.5552 25.1261 29.2822C25.3793 28.0092 26.0043 26.8399 26.9221 25.9221C27.8399 25.0043 29.0092 24.3793 30.2822 24.1261C31.5552 23.8729 32.8747 24.0028 34.0739 24.4995C35.273 24.9962 36.2979 25.8374 37.019 26.9166C37.7401 27.9958 38.125 29.2646 38.125 30.5625C38.123 32.3024 37.431 33.9704 36.2007 35.2007C34.9704 36.431 33.3024 37.123 31.5625 37.125Z" fill="white"/>
<path d="M32.7749 31.7747L32.5002 32.0494V26.8125C32.5002 26.5639 32.4014 26.3254 32.2256 26.1496C32.0498 25.9738 31.8113 25.875 31.5627 25.875C31.3141 25.875 31.0756 25.9738 30.8998 26.1496C30.724 26.3254 30.6252 26.5639 30.6252 26.8125V32.0494L30.3505 31.7747C30.1737 31.6039 29.9369 31.5094 29.6911 31.5116C29.4453 31.5137 29.2101 31.6123 29.0363 31.7861C28.8625 31.9599 28.7639 32.1951 28.7618 32.4409C28.7596 32.6867 28.8541 32.9235 29.0249 33.1003L30.8999 34.9753C31.0308 35.1059 31.1973 35.1949 31.3787 35.2311C31.56 35.2673 31.748 35.2491 31.9189 35.1788C32.0208 35.1328 32.1138 35.0694 32.1936 34.9913C32.2021 34.9828 32.2143 34.98 32.2227 34.9716L34.0977 33.0966C34.2685 32.9197 34.363 32.6829 34.3608 32.4371C34.3587 32.1913 34.2601 31.9562 34.0863 31.7824C33.9125 31.6085 33.6773 31.5099 33.4315 31.5078C33.1857 31.5057 32.9489 31.6002 32.7721 31.7709L32.7749 31.7747Z" fill="white"/>
<path d="M14.6875 19.3125C15.2053 19.3125 15.625 18.8928 15.625 18.375C15.625 17.8572 15.2053 17.4375 14.6875 17.4375C14.1697 17.4375 13.75 17.8572 13.75 18.375C13.75 18.8928 14.1697 19.3125 14.6875 19.3125Z" fill="white"/>
<path d="M14.6875 26.8125C15.2053 26.8125 15.625 26.3928 15.625 25.875C15.625 25.3572 15.2053 24.9375 14.6875 24.9375C14.1697 24.9375 13.75 25.3572 13.75 25.875C13.75 26.3928 14.1697 26.8125 14.6875 26.8125Z" fill="white"/>
<path d="M14.6875 34.3125C15.2053 34.3125 15.625 33.8928 15.625 33.375C15.625 32.8572 15.2053 32.4375 14.6875 32.4375C14.1697 32.4375 13.75 32.8572 13.75 33.375C13.75 33.8928 14.1697 34.3125 14.6875 34.3125Z" fill="white"/>
</g>
<defs>
<clipPath id="clip0_152_2331">
<rect width="30" height="30" fill="white" transform="translate(10 9)"/>
</clipPath>
</defs>
</svg>
