<svg width="48" height="48" viewBox="0 0 48 48" fill="none" xmlns="http://www.w3.org/2000/svg">
<rect width="48" height="48" rx="5" fill="#0F90E6"/>
<g clip-path="url(#clip0_152_2312)">
<path d="M39 18.668C39 18.3172 38.932 17.9761 38.7979 17.6542C38.7977 17.654 38.7976 17.6537 38.7975 17.6535L35.8675 10.6225C35.4568 9.63686 34.5014 9 33.4337 9H14.5663C13.4986 9 12.5432 9.63686 12.1325 10.6225L9.20215 17.6542C9.06803 17.9761 9 18.3172 9 18.668V22.3008C9 22.9756 9.25512 23.5917 9.67354 24.0586C9.25512 24.5255 9 25.1416 9 25.8164V29.332C9 30.0069 9.25512 30.623 9.67354 31.0898C9.25512 31.5567 9 32.1728 9 32.8477V36.3633C9 37.8172 10.1828 39 11.6367 39H36.3633C37.8172 39 39 37.8172 39 36.3633V32.8477C39 32.1728 38.7449 31.5567 38.3265 31.0898C38.7449 30.623 39 30.0069 39 29.332V25.8164C39 25.1416 38.7449 24.5255 38.3265 24.0586C38.7449 23.5917 39 22.9756 39 22.3008V18.668ZM13.7551 11.2986C13.892 10.9701 14.2104 10.7578 14.5663 10.7578H33.4337C33.7896 10.7578 34.108 10.9701 34.2449 11.2986L36.2172 16.0312H11.7828L13.7551 11.2986ZM37.2422 36.3633C37.2422 36.8479 36.8479 37.2422 36.3633 37.2422H11.6367C11.1521 37.2422 10.7578 36.8479 10.7578 36.3633V32.8477C10.7578 32.363 11.1521 31.9688 11.6367 31.9688H36.3633C36.8479 31.9688 37.2422 32.363 37.2422 32.8477V36.3633ZM37.2422 29.332C37.2422 29.8167 36.8479 30.2109 36.3633 30.2109H11.6367C11.1521 30.2109 10.7578 29.8167 10.7578 29.332V25.8164C10.7578 25.3318 11.1521 24.9375 11.6367 24.9375H36.3633C36.8479 24.9375 37.2422 25.3318 37.2422 25.8164V29.332ZM37.2422 22.3008C37.2422 22.7854 36.8479 23.1797 36.3633 23.1797H11.6367C11.1521 23.1797 10.7578 22.7854 10.7578 22.3008V18.668C10.7578 18.1792 11.1525 17.7891 11.6367 17.7891H36.3633C36.849 17.7891 37.2422 18.1807 37.2422 18.668V22.3008Z" fill="white"/>
<path d="M34.6055 33.7266H18.668C18.1826 33.7266 17.7891 34.1201 17.7891 34.6055C17.7891 35.0909 18.1826 35.4844 18.668 35.4844H34.6055C35.0909 35.4844 35.4844 35.0909 35.4844 34.6055C35.4844 34.1201 35.0909 33.7266 34.6055 33.7266Z" fill="white"/>
<path d="M34.6055 19.5469H18.668C18.1826 19.5469 17.7891 19.9404 17.7891 20.4258C17.7891 20.9112 18.1826 21.3047 18.668 21.3047H34.6055C35.0909 21.3047 35.4844 20.9112 35.4844 20.4258C35.4844 19.9404 35.0909 19.5469 34.6055 19.5469Z" fill="white"/>
<path d="M13.3945 19.5469C12.9091 19.5469 12.5156 19.9404 12.5156 20.4258C12.5156 20.9112 12.9091 21.4219 13.3945 21.4219C13.8799 21.4219 14.2734 20.9112 14.2734 20.4258C14.2734 19.9404 13.8799 19.5469 13.3945 19.5469Z" fill="white"/>
<path d="M34.6055 26.6953H18.668C18.1826 26.6953 17.7891 27.0888 17.7891 27.5742C17.7891 28.0596 18.1826 28.4531 18.668 28.4531H34.6055C35.0909 28.4531 35.4844 28.0596 35.4844 27.5742C35.4844 27.0888 35.0909 26.6953 34.6055 26.6953Z" fill="white"/>
<path d="M13.3945 28.4531C13.8799 28.4531 14.2734 28.0596 14.2734 27.5742C14.2734 27.0888 13.8799 26.6953 13.3945 26.6953C12.9091 26.6953 12.5156 27.0888 12.5156 27.5742C12.5156 28.0596 12.9091 28.4531 13.3945 28.4531Z" fill="white"/>
<path d="M13.3945 35.4844C13.8799 35.4844 14.2734 35.0909 14.2734 34.6055C14.2734 34.1201 13.8799 33.7266 13.3945 33.7266C12.9091 33.7266 12.5156 34.1201 12.5156 34.6055C12.5156 35.0909 12.9091 35.4844 13.3945 35.4844Z" fill="white"/>
</g>
<defs>
<clipPath id="clip0_152_2312">
<rect width="30" height="30" fill="white" transform="translate(9 9)"/>
</clipPath>
</defs>
</svg>
